<svg version="1.1" viewBox="0.0 0.0 960.0 720.0" fill="none" stroke="none" stroke-linecap="square" stroke-miterlimit="10" xmlns:xlink="http://www.w3.org/1999/xlink" xmlns="http://www.w3.org/2000/svg"><clipPath id="g77fe5cc8c6_1_1.0"><path d="m0 0l960.0 0l0 720.0l-960.0 0l0 -720.0z" clip-rule="nonzero"/></clipPath><g clip-path="url(#g77fe5cc8c6_1_1.0)"><path fill="#ffffff" d="m0 0l960.0 0l0 720.0l-960.0 0z" fill-rule="evenodd"/><path shape-rendering="crispEdges" fill="#d9ead3" d="m90.50131 60.95538l75.968506 0l0 76.595795l-75.968506 0l0 -76.595795z" fill-rule="nonzero"/><path shape-rendering="crispEdges" fill="#d9ead3" d="m166.46982 60.95538l75.968506 0l0 76.595795l-75.968506 0l0 -76.595795z" fill-rule="nonzero"/><path shape-rendering="crispEdges" fill="#fce5cd" d="m242.43832 60.95538l75.968506 0l0 76.595795l-75.968506 0l0 -76.595795z" fill-rule="nonzero"/><path shape-rendering="crispEdges" fill="#f3f3f3" d="m318.40683 60.95538l75.968506 0l0 76.595795l-75.968506 0l0 -76.595795z" fill-rule="nonzero"/><path shape-rendering="crispEdges" fill="#f3f3f3" d="m394.37534 60.95538l75.968506 0l0 76.595795l-75.968506 0l0 -76.595795z" fill-rule="nonzero"/><path shape-rendering="crispEdges" fill="#f3f3f3" d="m470.34384 60.95538l75.968475 0l0 76.595795l-75.968475 0l0 -76.595795z" fill-rule="nonzero"/><path shape-rendering="crispEdges" fill="#f3f3f3" d="m546.3123 60.95538l75.968506 0l0 76.595795l-75.968506 0l0 -76.595795z" fill-rule="nonzero"/><path stroke="#9e9e9e" stroke-width="2.0" stroke-linecap="butt" d="m90.50131 59.95538l0 78.595795" fill-rule="nonzero"/><path stroke="#9e9e9e" stroke-width="2.0" stroke-linecap="butt" d="m166.46982 59.95538l0 78.595795" fill-rule="nonzero"/><path stroke="#9e9e9e" stroke-width="2.0" stroke-linecap="butt" d="m242.43832 59.95538l0 78.595795" fill-rule="nonzero"/><path stroke="#9e9e9e" stroke-width="2.0" stroke-linecap="butt" d="m318.40683 59.95538l0 78.595795" fill-rule="nonzero"/><path stroke="#9e9e9e" stroke-width="2.0" stroke-linecap="butt" d="m394.37534 59.95538l0 78.595795" fill-rule="nonzero"/><path stroke="#9e9e9e" stroke-width="2.0" stroke-linecap="butt" d="m470.34384 59.95538l0 78.595795" fill-rule="nonzero"/><path stroke="#9e9e9e" stroke-width="2.0" stroke-linecap="butt" d="m546.3123 59.95538l0 78.595795" fill-rule="nonzero"/><path stroke="#9e9e9e" stroke-width="2.0" stroke-linecap="butt" d="m622.2808 59.95538l0 78.595795" fill-rule="nonzero"/><path stroke="#9e9e9e" stroke-width="2.0" stroke-linecap="butt" d="m89.50131 60.95538l533.77954 0" fill-rule="nonzero"/><path stroke="#9e9e9e" stroke-width="2.0" stroke-linecap="butt" d="m89.50131 137.55118l533.77954 0" fill-rule="nonzero"/><path fill="#000000" d="m143.45808 85.66538l0 0.78125q-1.546875 0.25 -2.75 1.640625q-0.875 1.046875 -2.609375 4.890625l-9.734375 21.578125l-0.6875076 0l-9.671875 -22.453125q-1.75 -4.0625 -2.34375 -4.765625q-0.59375 -0.703125 -2.25 -0.890625l0 -0.78125l13.546875 0l0 0.78125l-0.46875 0q-1.828125 0 -2.5 0.453125q-0.46875 0.3125 -0.46875 0.921875q0 0.375 0.15625 0.890625q0.171875 0.5 1.125 2.734375l6.0312576 14.046875l5.578125 -12.515625q1.0 -2.265625 1.21875 -3.03125q0.234375 -0.78125 0.234375 -1.3125q0 -0.625 -0.328125 -1.109375q-0.328125 -0.484375 -0.984375 -0.734375q-0.890625 -0.34375 -2.375 -0.34375l0 -0.78125l9.28125 0z" fill-rule="nonzero"/><path fill="#000000" d="m211.779 113.14976l0 0.765625l-14.765625 0l0 -0.765625l0.9375 0q1.21875 0 1.96875 -0.4375q0.546875 -0.296875 0.84375 -1.0q0.21875 -0.5 0.21875 -2.625l0 -18.578125q0 -2.171875 -0.234375 -2.703125q-0.21875 -0.546875 -0.921875 -0.953125q-0.6875 -0.40625 -1.875 -0.40625l-0.9375 0l0 -0.78125l14.765625 0l0 0.78125l-0.9375 0q-1.234375 0 -1.984375 0.4375q-0.546875 0.28125 -0.859375 1.0q-0.21875 0.5 -0.21875 2.625l0 18.578125q0 2.15625 0.234375 2.703125q0.234375 0.546875 0.9375 0.953125q0.703125 0.40625 1.890625 0.40625l0.9375 0z" fill-rule="nonzero"/><path fill="#000000" d="m272.34503 113.14976l0 0.765625l-14.765625 0l0 -0.765625l0.9375 0q1.21875 0 1.96875 -0.4375q0.546875 -0.296875 0.84375 -1.0q0.21875 -0.5 0.21875 -2.625l0 -18.578125q0 -2.171875 -0.234375 -2.703125q-0.21875 -0.546875 -0.921875 -0.953125q-0.6875 -0.40625 -1.875 -0.40625l-0.9375 0l0 -0.78125l14.765625 0l0 0.78125l-0.9375 0q-1.234375 0 -1.984375 0.4375q-0.546875 0.28125 -0.859375 1.0q-0.21875 0.5 -0.21875 2.625l0 18.578125q0 2.15625 0.234375 2.703125q0.234375 0.546875 0.9375 0.953125q0.703125 0.40625 1.890625 0.40625l0.9375 0zm31.350098 -27.484375l0 0.78125q-1.546875 0.25 -2.75 1.640625q-0.875 1.046875 -2.609375 4.890625l-9.734375 21.578125l-0.6875 0l-9.671875 -22.453125q-1.75 -4.0625 -2.34375 -4.765625q-0.59375 -0.703125 -2.25 -0.890625l0 -0.78125l13.546875 0l0 0.78125l-0.46875 0q-1.828125 0 -2.5 0.453125q-0.46875 0.3125 -0.46875 0.921875q0 0.375 0.15625 0.890625q0.171875 0.5 1.125 2.734375l6.03125 14.046875l5.578125 -12.515625q1.0 -2.265625 1.21875 -3.03125q0.234375 -0.78125 0.234375 -1.3125q0 -0.625 -0.328125 -1.109375q-0.328125 -0.484375 -0.984375 -0.734375q-0.890625 -0.34375 -2.375 -0.34375l0 -0.78125l9.28125 0z" fill-rule="nonzero"/><path fill="#000000" d="m371.3636 85.66538l0 0.78125q-1.546875 0.25 -2.75 1.640625q-0.875 1.046875 -2.609375 4.890625l-9.734375 21.578125l-0.6875 0l-9.671875 -22.453125q-1.75 -4.0625 -2.34375 -4.765625q-0.59375 -0.703125 -2.25 -0.890625l0 -0.78125l13.546875 0l0 0.78125l-0.46875 0q-1.828125 0 -2.5 0.453125q-0.46875 0.3125 -0.46875 0.921875q0 0.375 0.15625 0.890625q0.171875 0.5 1.125 2.734375l6.03125 14.046875l5.578125 -12.515625q1.0 -2.265625 1.21875 -3.03125q0.234375 -0.78125 0.234375 -1.3125q0 -0.625 -0.328125 -1.109375q-0.328125 -0.484375 -0.984375 -0.734375q-0.890625 -0.34375 -2.375 -0.34375l0 -0.78125l9.28125 0z" fill-rule="nonzero"/><path fill="#000000" d="m426.00424 114.49351l-6.5625 -15.09375q-1.1875 -2.734375 -1.859375 -3.453125q-0.484375 -0.546875 -1.421875 -0.734375l0 -0.765625l10.3594055 0l0 0.765625q-0.9844055 0 -1.3281555 0.359375q-0.5 0.453125 -0.5 1.078125q0 0.765625 0.90625 2.890625l3.2031555 7.3125l2.5625 -6.3125q1.109375 -2.703125 1.109375 -3.828125q0 -0.640625 -0.46875 -1.046875q-0.46875 -0.40625 -1.65625 -0.453125l0 -0.765625l6.375 0l0 0.765625q-0.921875 0.125 -1.5 0.6875q-0.578125 0.5625 -1.75 3.3125l-6.5 15.28125l-0.9687805 0zm17.21878 -29.484375q1.359375 0 2.296875 0.953125q0.9375 0.9375 0.9375 2.265625q0 1.34375 -0.953125 2.28125q-0.953125 0.9375 -2.28125 0.9375q-1.328125 0 -2.265625 -0.9375q-0.9375 -0.9375 -0.9375 -2.28125q0 -1.328125 0.9375 -2.265625q0.9375 -0.953125 2.265625 -0.953125zm2.921875 9.4375l0 15.421875q0 2.0625 0.46875 2.640625q0.484375 0.578125 1.875 0.65625l0 0.75l-10.515625 0l0 -0.75q1.296875 -0.046875 1.921875 -0.75q0.40625 -0.484375 0.40625 -2.546875l0 -11.359375q0 -2.0625 -0.484375 -2.640625q-0.46875 -0.578125 -1.84375 -0.65625l0 -0.765625l8.171875 0z" fill-rule="nonzero"/><path fill="#000000" d="m496.67618 85.00913q1.359375 0 2.296875 0.953125q0.9375 0.9375 0.9375 2.265625q0 1.34375 -0.953125 2.28125q-0.953125 0.9375 -2.28125 0.9375q-1.328125 0 -2.265625 -0.9375q-0.9375 -0.9375 -0.9375 -2.28125q0 -1.328125 0.9375 -2.265625q0.9375 -0.953125 2.265625 -0.953125zm2.921875 9.4375l0 15.421875q0 2.0625 0.46875 2.640625q0.484375 0.578125 1.875 0.65625l0 0.75l-10.515625 0l0 -0.75q1.296875 -0.046875 1.921875 -0.75q0.40625 -0.484375 0.40625 -2.546875l0 -11.359375q0 -2.0625 -0.484375 -2.640625q-0.46875 -0.578125 -1.84375 -0.65625l0 -0.765625l8.171875 0zm8.929382 -9.4375q1.359375 0 2.296875 0.953125q0.9375 0.9375 0.9375 2.265625q0 1.34375 -0.953125 2.28125q-0.953125 0.9375 -2.28125 0.9375q-1.328125 0 -2.265625 -0.9375q-0.9375 -0.9375 -0.9375 -2.28125q0 -1.328125 0.9375 -2.265625q0.9375 -0.953125 2.265625 -0.953125zm2.921875 9.4375l0 15.421875q0 2.0625 0.46875 2.640625q0.48440552 0.578125 1.8750305 0.65625l0 0.75l-10.5156555 0l0 -0.75q1.296875 -0.046875 1.921875 -0.75q0.40625 -0.484375 0.40625 -2.546875l0 -11.359375q0 -2.0625 -0.484375 -2.640625q-0.46875 -0.578125 -1.84375 -0.65625l0 -0.765625l8.171875 0zm8.929413 -9.4375q1.359375 0 2.296875 0.953125q0.9375 0.9375 0.9375 2.265625q0 1.34375 -0.953125 2.28125q-0.953125 0.9375 -2.28125 0.9375q-1.328125 0 -2.265625 -0.9375q-0.9375 -0.9375 -0.9375 -2.28125q0 -1.328125 0.9375 -2.265625q0.9375 -0.953125 2.265625 -0.953125zm2.921875 9.4375l0 15.421875q0 2.0625 0.46875 2.640625q0.484375 0.578125 1.875 0.65625l0 0.75l-10.515625 0l0 -0.75q1.296875 -0.046875 1.921875 -0.75q0.40625 -0.484375 0.40625 -2.546875l0 -11.359375q0 -2.0625 -0.484375 -2.640625q-0.46875 -0.578125 -1.84375 -0.65625l0 -0.765625l8.171875 0z" fill-rule="nonzero"/><path fill="#000000" d="m599.2691 85.66538l0 0.78125q-1.546875 0.25 -2.75 1.640625q-0.875 1.046875 -2.609375 4.890625l-9.734375 21.578125l-0.6875 0l-9.671875 -22.453125q-1.75 -4.0625 -2.34375 -4.765625q-0.59375 -0.703125 -2.25 -0.890625l0 -0.78125l13.546875 0l0 0.78125l-0.46875 0q-1.828125 0 -2.5 0.453125q-0.46875 0.3125 -0.46875 0.921875q0 0.375 0.15625 0.890625q0.171875 0.5 1.125 2.734375l6.03125 14.046875l5.578125 -12.515625q1.0 -2.265625 1.21875 -3.03125q0.234375 -0.78125 0.234375 -1.3125q0 -0.625 -0.328125 -1.109375q-0.328125 -0.484375 -0.984375 -0.734375q-0.890625 -0.34375 -2.375 -0.34375l0 -0.78125l9.28125 0z" fill-rule="nonzero"/><path shape-rendering="crispEdges" fill="#f3f3f3" d="m90.50131 156.95538l75.968506 0l0 76.595795l-75.968506 0l0 -76.595795z" fill-rule="nonzero"/><path shape-rendering="crispEdges" fill="#d9ead3" d="m166.46982 156.95538l75.968506 0l0 76.595795l-75.968506 0l0 -76.595795z" fill-rule="nonzero"/><path shape-rendering="crispEdges" fill="#d9ead3" d="m242.43832 156.95538l75.968506 0l0 76.595795l-75.968506 0l0 -76.595795z" fill-rule="nonzero"/><path shape-rendering="crispEdges" fill="#fce5cd" d="m318.40683 156.95538l75.968506 0l0 76.595795l-75.968506 0l0 -76.595795z" fill-rule="nonzero"/><path shape-rendering="crispEdges" fill="#f3f3f3" d="m394.37534 156.95538l75.968506 0l0 76.595795l-75.968506 0l0 -76.595795z" fill-rule="nonzero"/><path shape-rendering="crispEdges" fill="#f3f3f3" d="m470.34384 156.95538l75.968475 0l0 76.595795l-75.968475 0l0 -76.595795z" fill-rule="nonzero"/><path shape-rendering="crispEdges" fill="#f3f3f3" d="m546.3123 156.95538l75.968506 0l0 76.595795l-75.968506 0l0 -76.595795z" fill-rule="nonzero"/><path stroke="#9e9e9e" stroke-width="2.0" stroke-linecap="butt" d="m90.50131 155.95538l0 78.595795" fill-rule="nonzero"/><path stroke="#9e9e9e" stroke-width="2.0" stroke-linecap="butt" d="m166.46982 155.95538l0 78.595795" fill-rule="nonzero"/><path stroke="#9e9e9e" stroke-width="2.0" stroke-linecap="butt" d="m242.43832 155.95538l0 78.595795" fill-rule="nonzero"/><path stroke="#9e9e9e" stroke-width="2.0" stroke-linecap="butt" d="m318.40683 155.95538l0 78.595795" fill-rule="nonzero"/><path stroke="#9e9e9e" stroke-width="2.0" stroke-linecap="butt" d="m394.37534 155.95538l0 78.595795" fill-rule="nonzero"/><path stroke="#9e9e9e" stroke-width="2.0" stroke-linecap="butt" d="m470.34384 155.95538l0 78.595795" fill-rule="nonzero"/><path stroke="#9e9e9e" stroke-width="2.0" stroke-linecap="butt" d="m546.3123 155.95538l0 78.595795" fill-rule="nonzero"/><path stroke="#9e9e9e" stroke-width="2.0" stroke-linecap="butt" d="m622.2808 155.95538l0 78.595795" fill-rule="nonzero"/><path stroke="#9e9e9e" stroke-width="2.0" stroke-linecap="butt" d="m89.50131 156.95538l533.77954 0" fill-rule="nonzero"/><path stroke="#9e9e9e" stroke-width="2.0" stroke-linecap="butt" d="m89.50131 233.55118l533.77954 0" fill-rule="nonzero"/><path fill="#000000" d="m143.45808 181.66537l0 0.78125q-1.546875 0.25 -2.75 1.640625q-0.875 1.046875 -2.609375 4.890625l-9.734375 21.578125l-0.6875076 0l-9.671875 -22.453125q-1.75 -4.0625 -2.34375 -4.765625q-0.59375 -0.703125 -2.25 -0.890625l0 -0.78125l13.546875 0l0 0.78125l-0.46875 0q-1.828125 0 -2.5 0.453125q-0.46875 0.3125 -0.46875 0.921875q0 0.375 0.15625 0.890625q0.171875 0.5 1.125 2.734375l6.0312576 14.046875l5.578125 -12.515625q1.0 -2.265625 1.21875 -3.03125q0.234375 -0.78125 0.234375 -1.3125q0 -0.625 -0.328125 -1.109375q-0.328125 -0.484375 -0.984375 -0.734375q-0.890625 -0.34375 -2.375 -0.34375l0 -0.78125l9.28125 0z" fill-rule="nonzero"/><path fill="#000000" d="m211.779 209.14975l0 0.765625l-14.765625 0l0 -0.765625l0.9375 0q1.21875 0 1.96875 -0.4375q0.546875 -0.296875 0.84375 -1.0q0.21875 -0.5 0.21875 -2.625l0 -18.578125q0 -2.171875 -0.234375 -2.703125q-0.21875 -0.546875 -0.921875 -0.953125q-0.6875 -0.40625 -1.875 -0.40625l-0.9375 0l0 -0.78125l14.765625 0l0 0.78125l-0.9375 0q-1.234375 0 -1.984375 0.4375q-0.546875 0.28125 -0.859375 1.0q-0.21875 0.5 -0.21875 2.625l0 18.578125q0 2.15625 0.234375 2.703125q0.234375 0.546875 0.9375 0.953125q0.703125 0.40625 1.890625 0.40625l0.9375 0z" fill-rule="nonzero"/><path fill="#000000" d="m272.34503 209.14975l0 0.765625l-14.765625 0l0 -0.765625l0.9375 0q1.21875 0 1.96875 -0.4375q0.546875 -0.296875 0.84375 -1.0q0.21875 -0.5 0.21875 -2.625l0 -18.578125q0 -2.171875 -0.234375 -2.703125q-0.21875 -0.546875 -0.921875 -0.953125q-0.6875 -0.40625 -1.875 -0.40625l-0.9375 0l0 -0.78125l14.765625 0l0 0.78125l-0.9375 0q-1.234375 0 -1.984375 0.4375q-0.546875 0.28125 -0.859375 1.0q-0.21875 0.5 -0.21875 2.625l0 18.578125q0 2.15625 0.234375 2.703125q0.234375 0.546875 0.9375 0.953125q0.703125 0.40625 1.890625 0.40625l0.9375 0zm31.350098 -27.484375l0 0.78125q-1.546875 0.25 -2.75 1.640625q-0.875 1.046875 -2.609375 4.890625l-9.734375 21.578125l-0.6875 0l-9.671875 -22.453125q-1.75 -4.0625 -2.34375 -4.765625q-0.59375 -0.703125 -2.25 -0.890625l0 -0.78125l13.546875 0l0 0.78125l-0.46875 0q-1.828125 0 -2.5 0.453125q-0.46875 0.3125 -0.46875 0.921875q0 0.375 0.15625 0.890625q0.171875 0.5 1.125 2.734375l6.03125 14.046875l5.578125 -12.515625q1.0 -2.265625 1.21875 -3.03125q0.234375 -0.78125 0.234375 -1.3125q0 -0.625 -0.328125 -1.109375q-0.328125 -0.484375 -0.984375 -0.734375q-0.890625 -0.34375 -2.375 -0.34375l0 -0.78125l9.28125 0z" fill-rule="nonzero"/><path fill="#000000" d="m371.3636 181.66537l0 0.78125q-1.546875 0.25 -2.75 1.640625q-0.875 1.046875 -2.609375 4.890625l-9.734375 21.578125l-0.6875 0l-9.671875 -22.453125q-1.75 -4.0625 -2.34375 -4.765625q-0.59375 -0.703125 -2.25 -0.890625l0 -0.78125l13.546875 0l0 0.78125l-0.46875 0q-1.828125 0 -2.5 0.453125q-0.46875 0.3125 -0.46875 0.921875q0 0.375 0.15625 0.890625q0.171875 0.5 1.125 2.734375l6.03125 14.046875l5.578125 -12.515625q1.0 -2.265625 1.21875 -3.03125q0.234375 -0.78125 0.234375 -1.3125q0 -0.625 -0.328125 -1.109375q-0.328125 -0.484375 -0.984375 -0.734375q-0.890625 -0.34375 -2.375 -0.34375l0 -0.78125l9.28125 0z" fill-rule="nonzero"/><path fill="#000000" d="m426.00424 210.4935l-6.5625 -15.09375q-1.1875 -2.734375 -1.859375 -3.453125q-0.484375 -0.546875 -1.421875 -0.734375l0 -0.765625l10.3594055 0l0 0.765625q-0.9844055 0 -1.3281555 0.359375q-0.5 0.453125 -0.5 1.078125q0 0.765625 0.90625 2.890625l3.2031555 7.3125l2.5625 -6.3125q1.109375 -2.703125 1.109375 -3.828125q0 -0.640625 -0.46875 -1.046875q-0.46875 -0.40625 -1.65625 -0.453125l0 -0.765625l6.375 0l0 0.765625q-0.921875 0.125 -1.5 0.6875q-0.578125 0.5625 -1.75 3.3125l-6.5 15.28125l-0.9687805 0zm17.21878 -29.484375q1.359375 0 2.296875 0.953125q0.9375 0.9375 0.9375 2.265625q0 1.34375 -0.953125 2.28125q-0.953125 0.9375 -2.28125 0.9375q-1.328125 0 -2.265625 -0.9375q-0.9375 -0.9375 -0.9375 -2.28125q0 -1.328125 0.9375 -2.265625q0.9375 -0.953125 2.265625 -0.953125zm2.921875 9.4375l0 15.421875q0 2.0625 0.46875 2.640625q0.484375 0.578125 1.875 0.65625l0 0.75l-10.515625 0l0 -0.75q1.296875 -0.046875 1.921875 -0.75q0.40625 -0.484375 0.40625 -2.546875l0 -11.359375q0 -2.0625 -0.484375 -2.640625q-0.46875 -0.578125 -1.84375 -0.65625l0 -0.765625l8.171875 0z" fill-rule="nonzero"/><path fill="#000000" d="m496.67618 181.00912q1.359375 0 2.296875 0.953125q0.9375 0.9375 0.9375 2.265625q0 1.34375 -0.953125 2.28125q-0.953125 0.9375 -2.28125 0.9375q-1.328125 0 -2.265625 -0.9375q-0.9375 -0.9375 -0.9375 -2.28125q0 -1.328125 0.9375 -2.265625q0.9375 -0.953125 2.265625 -0.953125zm2.921875 9.4375l0 15.421875q0 2.0625 0.46875 2.640625q0.484375 0.578125 1.875 0.65625l0 0.75l-10.515625 0l0 -0.75q1.296875 -0.046875 1.921875 -0.75q0.40625 -0.484375 0.40625 -2.546875l0 -11.359375q0 -2.0625 -0.484375 -2.640625q-0.46875 -0.578125 -1.84375 -0.65625l0 -0.765625l8.171875 0zm8.929382 -9.4375q1.359375 0 2.296875 0.953125q0.9375 0.9375 0.9375 2.265625q0 1.34375 -0.953125 2.28125q-0.953125 0.9375 -2.28125 0.9375q-1.328125 0 -2.265625 -0.9375q-0.9375 -0.9375 -0.9375 -2.28125q0 -1.328125 0.9375 -2.265625q0.9375 -0.953125 2.265625 -0.953125zm2.921875 9.4375l0 15.421875q0 2.0625 0.46875 2.640625q0.48440552 0.578125 1.8750305 0.65625l0 0.75l-10.5156555 0l0 -0.75q1.296875 -0.046875 1.921875 -0.75q0.40625 -0.484375 0.40625 -2.546875l0 -11.359375q0 -2.0625 -0.484375 -2.640625q-0.46875 -0.578125 -1.84375 -0.65625l0 -0.765625l8.171875 0zm8.929413 -9.4375q1.359375 0 2.296875 0.953125q0.9375 0.9375 0.9375 2.265625q0 1.34375 -0.953125 2.28125q-0.953125 0.9375 -2.28125 0.9375q-1.328125 0 -2.265625 -0.9375q-0.9375 -0.9375 -0.9375 -2.28125q0 -1.328125 0.9375 -2.265625q0.9375 -0.953125 2.265625 -0.953125zm2.921875 9.4375l0 15.421875q0 2.0625 0.46875 2.640625q0.484375 0.578125 1.875 0.65625l0 0.75l-10.515625 0l0 -0.75q1.296875 -0.046875 1.921875 -0.75q0.40625 -0.484375 0.40625 -2.546875l0 -11.359375q0 -2.0625 -0.484375 -2.640625q-0.46875 -0.578125 -1.84375 -0.65625l0 -0.765625l8.171875 0z" fill-rule="nonzero"/><path fill="#000000" d="m599.2691 181.66537l0 0.78125q-1.546875 0.25 -2.75 1.640625q-0.875 1.046875 -2.609375 4.890625l-9.734375 21.578125l-0.6875 0l-9.671875 -22.453125q-1.75 -4.0625 -2.34375 -4.765625q-0.59375 -0.703125 -2.25 -0.890625l0 -0.78125l13.546875 0l0 0.78125l-0.46875 0q-1.828125 0 -2.5 0.453125q-0.46875 0.3125 -0.46875 0.921875q0 0.375 0.15625 0.890625q0.171875 0.5 1.125 2.734375l6.03125 14.046875l5.578125 -12.515625q1.0 -2.265625 1.21875 -3.03125q0.234375 -0.78125 0.234375 -1.3125q0 -0.625 -0.328125 -1.109375q-0.328125 -0.484375 -0.984375 -0.734375q-0.890625 -0.34375 -2.375 -0.34375l0 -0.78125l9.28125 0z" fill-rule="nonzero"/><path shape-rendering="crispEdges" fill="#efefef" d="m90.50131 252.95538l75.968506 0l0 76.595795l-75.968506 0l0 -76.595795z" fill-rule="nonzero"/><path shape-rendering="crispEdges" fill="#efefef" d="m166.46982 252.95538l75.968506 0l0 76.595795l-75.968506 0l0 -76.595795z" fill-rule="nonzero"/><path shape-rendering="crispEdges" fill="#d9ead3" d="m242.43832 252.95538l75.968506 0l0 76.595795l-75.968506 0l0 -76.595795z" fill-rule="nonzero"/><path shape-rendering="crispEdges" fill="#d9ead3" d="m318.40683 252.95538l75.968506 0l0 76.595795l-75.968506 0l0 -76.595795z" fill-rule="nonzero"/><path shape-rendering="crispEdges" fill="#fce5cd" d="m394.37534 252.95538l75.968506 0l0 76.595795l-75.968506 0l0 -76.595795z" fill-rule="nonzero"/><path shape-rendering="crispEdges" fill="#efefef" d="m470.34384 252.95538l75.968475 0l0 76.595795l-75.968475 0l0 -76.595795z" fill-rule="nonzero"/><path shape-rendering="crispEdges" fill="#efefef" d="m546.3123 252.95538l75.968506 0l0 76.595795l-75.968506 0l0 -76.595795z" fill-rule="nonzero"/><path stroke="#9e9e9e" stroke-width="2.0" stroke-linecap="butt" d="m90.50131 251.95538l0 78.595795" fill-rule="nonzero"/><path stroke="#9e9e9e" stroke-width="2.0" stroke-linecap="butt" d="m166.46982 251.95538l0 78.595795" fill-rule="nonzero"/><path stroke="#9e9e9e" stroke-width="2.0" stroke-linecap="butt" d="m242.43832 251.95538l0 78.595795" fill-rule="nonzero"/><path stroke="#9e9e9e" stroke-width="2.0" stroke-linecap="butt" d="m318.40683 251.95538l0 78.595795" fill-rule="nonzero"/><path stroke="#9e9e9e" stroke-width="2.0" stroke-linecap="butt" d="m394.37534 251.95538l0 78.595795" fill-rule="nonzero"/><path stroke="#9e9e9e" stroke-width="2.0" stroke-linecap="butt" d="m470.34384 251.95538l0 78.595795" fill-rule="nonzero"/><path stroke="#9e9e9e" stroke-width="2.0" stroke-linecap="butt" d="m546.3123 251.95538l0 78.595795" fill-rule="nonzero"/><path stroke="#9e9e9e" stroke-width="2.0" stroke-linecap="butt" d="m622.2808 251.95538l0 78.595795" fill-rule="nonzero"/><path stroke="#9e9e9e" stroke-width="2.0" stroke-linecap="butt" d="m89.50131 252.95538l533.77954 0" fill-rule="nonzero"/><path stroke="#9e9e9e" stroke-width="2.0" stroke-linecap="butt" d="m89.50131 329.55118l533.77954 0" fill-rule="nonzero"/><path fill="#000000" d="m143.45808 277.66537l0 0.78125q-1.546875 0.25 -2.75 1.640625q-0.875 1.046875 -2.609375 4.890625l-9.734375 21.578125l-0.6875076 0l-9.671875 -22.453125q-1.75 -4.0625 -2.34375 -4.765625q-0.59375 -0.703125 -2.25 -0.890625l0 -0.78125l13.546875 0l0 0.78125l-0.46875 0q-1.828125 0 -2.5 0.453125q-0.46875 0.3125 -0.46875 0.921875q0 0.375 0.15625 0.890625q0.171875 0.5 1.125 2.734375l6.0312576 14.046875l5.578125 -12.515625q1.0 -2.265625 1.21875 -3.03125q0.234375 -0.78125 0.234375 -1.3125q0 -0.625 -0.328125 -1.109375q-0.328125 -0.484375 -0.984375 -0.734375q-0.890625 -0.34375 -2.375 -0.34375l0 -0.78125l9.28125 0z" fill-rule="nonzero"/><path fill="#000000" d="m211.779 305.14975l0 0.765625l-14.765625 0l0 -0.765625l0.9375 0q1.21875 0 1.96875 -0.4375q0.546875 -0.296875 0.84375 -1.0q0.21875 -0.5 0.21875 -2.625l0 -18.578125q0 -2.171875 -0.234375 -2.703125q-0.21875 -0.546875 -0.921875 -0.953125q-0.6875 -0.40625 -1.875 -0.40625l-0.9375 0l0 -0.78125l14.765625 0l0 0.78125l-0.9375 0q-1.234375 0 -1.984375 0.4375q-0.546875 0.28125 -0.859375 1.0q-0.21875 0.5 -0.21875 2.625l0 18.578125q0 2.15625 0.234375 2.703125q0.234375 0.546875 0.9375 0.953125q0.703125 0.40625 1.890625 0.40625l0.9375 0z" fill-rule="nonzero"/><path fill="#000000" d="m272.34503 305.14975l0 0.765625l-14.765625 0l0 -0.765625l0.9375 0q1.21875 0 1.96875 -0.4375q0.546875 -0.296875 0.84375 -1.0q0.21875 -0.5 0.21875 -2.625l0 -18.578125q0 -2.171875 -0.234375 -2.703125q-0.21875 -0.546875 -0.921875 -0.953125q-0.6875 -0.40625 -1.875 -0.40625l-0.9375 0l0 -0.78125l14.765625 0l0 0.78125l-0.9375 0q-1.234375 0 -1.984375 0.4375q-0.546875 0.28125 -0.859375 1.0q-0.21875 0.5 -0.21875 2.625l0 18.578125q0 2.15625 0.234375 2.703125q0.234375 0.546875 0.9375 0.953125q0.703125 0.40625 1.890625 0.40625l0.9375 0zm31.350098 -27.484375l0 0.78125q-1.546875 0.25 -2.75 1.640625q-0.875 1.046875 -2.609375 4.890625l-9.734375 21.578125l-0.6875 0l-9.671875 -22.453125q-1.75 -4.0625 -2.34375 -4.765625q-0.59375 -0.703125 -2.25 -0.890625l0 -0.78125l13.546875 0l0 0.78125l-0.46875 0q-1.828125 0 -2.5 0.453125q-0.46875 0.3125 -0.46875 0.921875q0 0.375 0.15625 0.890625q0.171875 0.5 1.125 2.734375l6.03125 14.046875l5.578125 -12.515625q1.0 -2.265625 1.21875 -3.03125q0.234375 -0.78125 0.234375 -1.3125q0 -0.625 -0.328125 -1.109375q-0.328125 -0.484375 -0.984375 -0.734375q-0.890625 -0.34375 -2.375 -0.34375l0 -0.78125l9.28125 0z" fill-rule="nonzero"/><path fill="#000000" d="m371.3636 277.66537l0 0.78125q-1.546875 0.25 -2.75 1.640625q-0.875 1.046875 -2.609375 4.890625l-9.734375 21.578125l-0.6875 0l-9.671875 -22.453125q-1.75 -4.0625 -2.34375 -4.765625q-0.59375 -0.703125 -2.25 -0.890625l0 -0.78125l13.546875 0l0 0.78125l-0.46875 0q-1.828125 0 -2.5 0.453125q-0.46875 0.3125 -0.46875 0.921875q0 0.375 0.15625 0.890625q0.171875 0.5 1.125 2.734375l6.03125 14.046875l5.578125 -12.515625q1.0 -2.265625 1.21875 -3.03125q0.234375 -0.78125 0.234375 -1.3125q0 -0.625 -0.328125 -1.109375q-0.328125 -0.484375 -0.984375 -0.734375q-0.890625 -0.34375 -2.375 -0.34375l0 -0.78125l9.28125 0z" fill-rule="nonzero"/><path fill="#000000" d="m426.00424 306.4935l-6.5625 -15.09375q-1.1875 -2.734375 -1.859375 -3.453125q-0.484375 -0.546875 -1.421875 -0.734375l0 -0.765625l10.3594055 0l0 0.765625q-0.9844055 0 -1.3281555 0.359375q-0.5 0.453125 -0.5 1.078125q0 0.765625 0.90625 2.890625l3.2031555 7.3125l2.5625 -6.3125q1.109375 -2.703125 1.109375 -3.828125q0 -0.640625 -0.46875 -1.046875q-0.46875 -0.40625 -1.65625 -0.453125l0 -0.765625l6.375 0l0 0.765625q-0.921875 0.125 -1.5 0.6875q-0.578125 0.5625 -1.75 3.3125l-6.5 15.28125l-0.9687805 0zm17.21878 -29.484375q1.359375 0 2.296875 0.953125q0.9375 0.9375 0.9375 2.265625q0 1.34375 -0.953125 2.28125q-0.953125 0.9375 -2.28125 0.9375q-1.328125 0 -2.265625 -0.9375q-0.9375 -0.9375 -0.9375 -2.28125q0 -1.328125 0.9375 -2.265625q0.9375 -0.953125 2.265625 -0.953125zm2.921875 9.4375l0 15.421875q0 2.0625 0.46875 2.640625q0.484375 0.578125 1.875 0.65625l0 0.75l-10.515625 0l0 -0.75q1.296875 -0.046875 1.921875 -0.75q0.40625 -0.484375 0.40625 -2.546875l0 -11.359375q0 -2.0625 -0.484375 -2.640625q-0.46875 -0.578125 -1.84375 -0.65625l0 -0.765625l8.171875 0z" fill-rule="nonzero"/><path fill="#000000" d="m496.67618 277.00912q1.359375 0 2.296875 0.953125q0.9375 0.9375 0.9375 2.265625q0 1.34375 -0.953125 2.28125q-0.953125 0.9375 -2.28125 0.9375q-1.328125 0 -2.265625 -0.9375q-0.9375 -0.9375 -0.9375 -2.28125q0 -1.328125 0.9375 -2.265625q0.9375 -0.953125 2.265625 -0.953125zm2.921875 9.4375l0 15.421875q0 2.0625 0.46875 2.640625q0.484375 0.578125 1.875 0.65625l0 0.75l-10.515625 0l0 -0.75q1.296875 -0.046875 1.921875 -0.75q0.40625 -0.484375 0.40625 -2.546875l0 -11.359375q0 -2.0625 -0.484375 -2.640625q-0.46875 -0.578125 -1.84375 -0.65625l0 -0.765625l8.171875 0zm8.929382 -9.4375q1.359375 0 2.296875 0.953125q0.9375 0.9375 0.9375 2.265625q0 1.34375 -0.953125 2.28125q-0.953125 0.9375 -2.28125 0.9375q-1.328125 0 -2.265625 -0.9375q-0.9375 -0.9375 -0.9375 -2.28125q0 -1.328125 0.9375 -2.265625q0.9375 -0.953125 2.265625 -0.953125zm2.921875 9.4375l0 15.421875q0 2.0625 0.46875 2.640625q0.48440552 0.578125 1.8750305 0.65625l0 0.75l-10.5156555 0l0 -0.75q1.296875 -0.046875 1.921875 -0.75q0.40625 -0.484375 0.40625 -2.546875l0 -11.359375q0 -2.0625 -0.484375 -2.640625q-0.46875 -0.578125 -1.84375 -0.65625l0 -0.765625l8.171875 0zm8.929413 -9.4375q1.359375 0 2.296875 0.953125q0.9375 0.9375 0.9375 2.265625q0 1.34375 -0.953125 2.28125q-0.953125 0.9375 -2.28125 0.9375q-1.328125 0 -2.265625 -0.9375q-0.9375 -0.9375 -0.9375 -2.28125q0 -1.328125 0.9375 -2.265625q0.9375 -0.953125 2.265625 -0.953125zm2.921875 9.4375l0 15.421875q0 2.0625 0.46875 2.640625q0.484375 0.578125 1.875 0.65625l0 0.75l-10.515625 0l0 -0.75q1.296875 -0.046875 1.921875 -0.75q0.40625 -0.484375 0.40625 -2.546875l0 -11.359375q0 -2.0625 -0.484375 -2.640625q-0.46875 -0.578125 -1.84375 -0.65625l0 -0.765625l8.171875 0z" fill-rule="nonzero"/><path fill="#000000" d="m599.2691 277.66537l0 0.78125q-1.546875 0.25 -2.75 1.640625q-0.875 1.046875 -2.609375 4.890625l-9.734375 21.578125l-0.6875 0l-9.671875 -22.453125q-1.75 -4.0625 -2.34375 -4.765625q-0.59375 -0.703125 -2.25 -0.890625l0 -0.78125l13.546875 0l0 0.78125l-0.46875 0q-1.828125 0 -2.5 0.453125q-0.46875 0.3125 -0.46875 0.921875q0 0.375 0.15625 0.890625q0.171875 0.5 1.125 2.734375l6.03125 14.046875l5.578125 -12.515625q1.0 -2.265625 1.21875 -3.03125q0.234375 -0.78125 0.234375 -1.3125q0 -0.625 -0.328125 -1.109375q-0.328125 -0.484375 -0.984375 -0.734375q-0.890625 -0.34375 -2.375 -0.34375l0 -0.78125l9.28125 0z" fill-rule="nonzero"/><path shape-rendering="crispEdges" fill="#efefef" d="m90.50131 348.95538l75.968506 0l0 76.595795l-75.968506 0l0 -76.595795z" fill-rule="nonzero"/><path shape-rendering="crispEdges" fill="#efefef" d="m166.46982 348.95538l75.968506 0l0 76.595795l-75.968506 0l0 -76.595795z" fill-rule="nonzero"/><path shape-rendering="crispEdges" fill="#efefef" d="m242.43832 348.95538l75.968506 0l0 76.595795l-75.968506 0l0 -76.595795z" fill-rule="nonzero"/><path shape-rendering="crispEdges" fill="#d9ead3" d="m318.40683 348.95538l75.968506 0l0 76.595795l-75.968506 0l0 -76.595795z" fill-rule="nonzero"/><path shape-rendering="crispEdges" fill="#d9ead3" d="m394.37534 348.95538l75.968506 0l0 76.595795l-75.968506 0l0 -76.595795z" fill-rule="nonzero"/><path shape-rendering="crispEdges" fill="#fce5cd" d="m470.34384 348.95538l75.968475 0l0 76.595795l-75.968475 0l0 -76.595795z" fill-rule="nonzero"/><path shape-rendering="crispEdges" fill="#efefef" d="m546.3123 348.95538l75.968506 0l0 76.595795l-75.968506 0l0 -76.595795z" fill-rule="nonzero"/><path stroke="#9e9e9e" stroke-width="2.0" stroke-linecap="butt" d="m90.50131 347.95538l0 78.595795" fill-rule="nonzero"/><path stroke="#9e9e9e" stroke-width="2.0" stroke-linecap="butt" d="m166.46982 347.95538l0 78.595795" fill-rule="nonzero"/><path stroke="#9e9e9e" stroke-width="2.0" stroke-linecap="butt" d="m242.43832 347.95538l0 78.595795" fill-rule="nonzero"/><path stroke="#9e9e9e" stroke-width="2.0" stroke-linecap="butt" d="m318.40683 347.95538l0 78.595795" fill-rule="nonzero"/><path stroke="#9e9e9e" stroke-width="2.0" stroke-linecap="butt" d="m394.37534 347.95538l0 78.595795" fill-rule="nonzero"/><path stroke="#9e9e9e" stroke-width="2.0" stroke-linecap="butt" d="m470.34384 347.95538l0 78.595795" fill-rule="nonzero"/><path stroke="#9e9e9e" stroke-width="2.0" stroke-linecap="butt" d="m546.3123 347.95538l0 78.595795" fill-rule="nonzero"/><path stroke="#9e9e9e" stroke-width="2.0" stroke-linecap="butt" d="m622.2808 347.95538l0 78.595795" fill-rule="nonzero"/><path stroke="#9e9e9e" stroke-width="2.0" stroke-linecap="butt" d="m89.50131 348.95538l533.77954 0" fill-rule="nonzero"/><path stroke="#9e9e9e" stroke-width="2.0" stroke-linecap="butt" d="m89.50131 425.55118l533.77954 0" fill-rule="nonzero"/><path fill="#000000" d="m143.45808 373.66537l0 0.78125q-1.546875 0.25 -2.75 1.640625q-0.875 1.046875 -2.609375 4.890625l-9.734375 21.578125l-0.6875076 0l-9.671875 -22.453125q-1.75 -4.0625 -2.34375 -4.765625q-0.59375 -0.703125 -2.25 -0.890625l0 -0.78125l13.546875 0l0 0.78125l-0.46875 0q-1.828125 0 -2.5 0.453125q-0.46875 0.3125 -0.46875 0.921875q0 0.375 0.15625 0.890625q0.171875 0.5 1.125 2.734375l6.0312576 14.046875l5.578125 -12.515625q1.0 -2.265625 1.21875 -3.03125q0.234375 -0.78125 0.234375 -1.3125q0 -0.625 -0.328125 -1.109375q-0.328125 -0.484375 -0.984375 -0.734375q-0.890625 -0.34375 -2.375 -0.34375l0 -0.78125l9.28125 0z" fill-rule="nonzero"/><path fill="#000000" d="m211.779 401.14975l0 0.765625l-14.765625 0l0 -0.765625l0.9375 0q1.21875 0 1.96875 -0.4375q0.546875 -0.296875 0.84375 -1.0q0.21875 -0.5 0.21875 -2.625l0 -18.578125q0 -2.171875 -0.234375 -2.703125q-0.21875 -0.546875 -0.921875 -0.953125q-0.6875 -0.40625 -1.875 -0.40625l-0.9375 0l0 -0.78125l14.765625 0l0 0.78125l-0.9375 0q-1.234375 0 -1.984375 0.4375q-0.546875 0.28125 -0.859375 1.0q-0.21875 0.5 -0.21875 2.625l0 18.578125q0 2.15625 0.234375 2.703125q0.234375 0.546875 0.9375 0.953125q0.703125 0.40625 1.890625 0.40625l0.9375 0z" fill-rule="nonzero"/><path fill="#000000" d="m272.34503 401.14975l0 0.765625l-14.765625 0l0 -0.765625l0.9375 0q1.21875 0 1.96875 -0.4375q0.546875 -0.296875 0.84375 -1.0q0.21875 -0.5 0.21875 -2.625l0 -18.578125q0 -2.171875 -0.234375 -2.703125q-0.21875 -0.546875 -0.921875 -0.953125q-0.6875 -0.40625 -1.875 -0.40625l-0.9375 0l0 -0.78125l14.765625 0l0 0.78125l-0.9375 0q-1.234375 0 -1.984375 0.4375q-0.546875 0.28125 -0.859375 1.0q-0.21875 0.5 -0.21875 2.625l0 18.578125q0 2.15625 0.234375 2.703125q0.234375 0.546875 0.9375 0.953125q0.703125 0.40625 1.890625 0.40625l0.9375 0zm31.350098 -27.484375l0 0.78125q-1.546875 0.25 -2.75 1.640625q-0.875 1.046875 -2.609375 4.890625l-9.734375 21.578125l-0.6875 0l-9.671875 -22.453125q-1.75 -4.0625 -2.34375 -4.765625q-0.59375 -0.703125 -2.25 -0.890625l0 -0.78125l13.546875 0l0 0.78125l-0.46875 0q-1.828125 0 -2.5 0.453125q-0.46875 0.3125 -0.46875 0.921875q0 0.375 0.15625 0.890625q0.171875 0.5 1.125 2.734375l6.03125 14.046875l5.578125 -12.515625q1.0 -2.265625 1.21875 -3.03125q0.234375 -0.78125 0.234375 -1.3125q0 -0.625 -0.328125 -1.109375q-0.328125 -0.484375 -0.984375 -0.734375q-0.890625 -0.34375 -2.375 -0.34375l0 -0.78125l9.28125 0z" fill-rule="nonzero"/><path fill="#000000" d="m371.3636 373.66537l0 0.78125q-1.546875 0.25 -2.75 1.640625q-0.875 1.046875 -2.609375 4.890625l-9.734375 21.578125l-0.6875 0l-9.671875 -22.453125q-1.75 -4.0625 -2.34375 -4.765625q-0.59375 -0.703125 -2.25 -0.890625l0 -0.78125l13.546875 0l0 0.78125l-0.46875 0q-1.828125 0 -2.5 0.453125q-0.46875 0.3125 -0.46875 0.921875q0 0.375 0.15625 0.890625q0.171875 0.5 1.125 2.734375l6.03125 14.046875l5.578125 -12.515625q1.0 -2.265625 1.21875 -3.03125q0.234375 -0.78125 0.234375 -1.3125q0 -0.625 -0.328125 -1.109375q-0.328125 -0.484375 -0.984375 -0.734375q-0.890625 -0.34375 -2.375 -0.34375l0 -0.78125l9.28125 0z" fill-rule="nonzero"/><path fill="#000000" d="m426.00424 402.4935l-6.5625 -15.09375q-1.1875 -2.734375 -1.859375 -3.453125q-0.484375 -0.546875 -1.421875 -0.734375l0 -0.765625l10.3594055 0l0 0.765625q-0.9844055 0 -1.3281555 0.359375q-0.5 0.453125 -0.5 1.078125q0 0.765625 0.90625 2.890625l3.2031555 7.3125l2.5625 -6.3125q1.109375 -2.703125 1.109375 -3.828125q0 -0.640625 -0.46875 -1.046875q-0.46875 -0.40625 -1.65625 -0.453125l0 -0.765625l6.375 0l0 0.765625q-0.921875 0.125 -1.5 0.6875q-0.578125 0.5625 -1.75 3.3125l-6.5 15.28125l-0.9687805 0zm17.21878 -29.484375q1.359375 0 2.296875 0.953125q0.9375 0.9375 0.9375 2.265625q0 1.34375 -0.953125 2.28125q-0.953125 0.9375 -2.28125 0.9375q-1.328125 0 -2.265625 -0.9375q-0.9375 -0.9375 -0.9375 -2.28125q0 -1.328125 0.9375 -2.265625q0.9375 -0.953125 2.265625 -0.953125zm2.921875 9.4375l0 15.421875q0 2.0625 0.46875 2.640625q0.484375 0.578125 1.875 0.65625l0 0.75l-10.515625 0l0 -0.75q1.296875 -0.046875 1.921875 -0.75q0.40625 -0.484375 0.40625 -2.546875l0 -11.359375q0 -2.0625 -0.484375 -2.640625q-0.46875 -0.578125 -1.84375 -0.65625l0 -0.765625l8.171875 0z" fill-rule="nonzero"/><path fill="#000000" d="m496.67618 373.00912q1.359375 0 2.296875 0.953125q0.9375 0.9375 0.9375 2.265625q0 1.34375 -0.953125 2.28125q-0.953125 0.9375 -2.28125 0.9375q-1.328125 0 -2.265625 -0.9375q-0.9375 -0.9375 -0.9375 -2.28125q0 -1.328125 0.9375 -2.265625q0.9375 -0.953125 2.265625 -0.953125zm2.921875 9.4375l0 15.421875q0 2.0625 0.46875 2.640625q0.484375 0.578125 1.875 0.65625l0 0.75l-10.515625 0l0 -0.75q1.296875 -0.046875 1.921875 -0.75q0.40625 -0.484375 0.40625 -2.546875l0 -11.359375q0 -2.0625 -0.484375 -2.640625q-0.46875 -0.578125 -1.84375 -0.65625l0 -0.765625l8.171875 0zm8.929382 -9.4375q1.359375 0 2.296875 0.953125q0.9375 0.9375 0.9375 2.265625q0 1.34375 -0.953125 2.28125q-0.953125 0.9375 -2.28125 0.9375q-1.328125 0 -2.265625 -0.9375q-0.9375 -0.9375 -0.9375 -2.28125q0 -1.328125 0.9375 -2.265625q0.9375 -0.953125 2.265625 -0.953125zm2.921875 9.4375l0 15.421875q0 2.0625 0.46875 2.640625q0.48440552 0.578125 1.8750305 0.65625l0 0.75l-10.5156555 0l0 -0.75q1.296875 -0.046875 1.921875 -0.75q0.40625 -0.484375 0.40625 -2.546875l0 -11.359375q0 -2.0625 -0.484375 -2.640625q-0.46875 -0.578125 -1.84375 -0.65625l0 -0.765625l8.171875 0zm8.929413 -9.4375q1.359375 0 2.296875 0.953125q0.9375 0.9375 0.9375 2.265625q0 1.34375 -0.953125 2.28125q-0.953125 0.9375 -2.28125 0.9375q-1.328125 0 -2.265625 -0.9375q-0.9375 -0.9375 -0.9375 -2.28125q0 -1.328125 0.9375 -2.265625q0.9375 -0.953125 2.265625 -0.953125zm2.921875 9.4375l0 15.421875q0 2.0625 0.46875 2.640625q0.484375 0.578125 1.875 0.65625l0 0.75l-10.515625 0l0 -0.75q1.296875 -0.046875 1.921875 -0.75q0.40625 -0.484375 0.40625 -2.546875l0 -11.359375q0 -2.0625 -0.484375 -2.640625q-0.46875 -0.578125 -1.84375 -0.65625l0 -0.765625l8.171875 0z" fill-rule="nonzero"/><path fill="#000000" d="m599.2691 373.66537l0 0.78125q-1.546875 0.25 -2.75 1.640625q-0.875 1.046875 -2.609375 4.890625l-9.734375 21.578125l-0.6875 0l-9.671875 -22.453125q-1.75 -4.0625 -2.34375 -4.765625q-0.59375 -0.703125 -2.25 -0.890625l0 -0.78125l13.546875 0l0 0.78125l-0.46875 0q-1.828125 0 -2.5 0.453125q-0.46875 0.3125 -0.46875 0.921875q0 0.375 0.15625 0.890625q0.171875 0.5 1.125 2.734375l6.03125 14.046875l5.578125 -12.515625q1.0 -2.265625 1.21875 -3.03125q0.234375 -0.78125 0.234375 -1.3125q0 -0.625 -0.328125 -1.109375q-0.328125 -0.484375 -0.984375 -0.734375q-0.890625 -0.34375 -2.375 -0.34375l0 -0.78125l9.28125 0z" fill-rule="nonzero"/><path shape-rendering="crispEdges" fill="#f3f3f3" d="m90.50131 444.95538l75.968506 0l0 76.595825l-75.968506 0l0 -76.595825z" fill-rule="nonzero"/><path shape-rendering="crispEdges" fill="#f3f3f3" d="m166.46982 444.95538l75.968506 0l0 76.595825l-75.968506 0l0 -76.595825z" fill-rule="nonzero"/><path shape-rendering="crispEdges" fill="#f3f3f3" d="m242.43832 444.95538l75.968506 0l0 76.595825l-75.968506 0l0 -76.595825z" fill-rule="nonzero"/><path shape-rendering="crispEdges" fill="#f3f3f3" d="m318.40683 444.95538l75.968506 0l0 76.595825l-75.968506 0l0 -76.595825z" fill-rule="nonzero"/><path shape-rendering="crispEdges" fill="#d9ead3" d="m394.37534 444.95538l75.968506 0l0 76.595825l-75.968506 0l0 -76.595825z" fill-rule="nonzero"/><path shape-rendering="crispEdges" fill="#d9ead3" d="m470.34384 444.95538l75.968475 0l0 76.595825l-75.968475 0l0 -76.595825z" fill-rule="nonzero"/><path shape-rendering="crispEdges" fill="#fce5cd" d="m546.3123 444.95538l75.968506 0l0 76.595825l-75.968506 0l0 -76.595825z" fill-rule="nonzero"/><path stroke="#9e9e9e" stroke-width="2.0" stroke-linecap="butt" d="m90.50131 443.95538l0 78.595825" fill-rule="nonzero"/><path stroke="#9e9e9e" stroke-width="2.0" stroke-linecap="butt" d="m166.46982 443.95538l0 78.595825" fill-rule="nonzero"/><path stroke="#9e9e9e" stroke-width="2.0" stroke-linecap="butt" d="m242.43832 443.95538l0 78.595825" fill-rule="nonzero"/><path stroke="#9e9e9e" stroke-width="2.0" stroke-linecap="butt" d="m318.40683 443.95538l0 78.595825" fill-rule="nonzero"/><path stroke="#9e9e9e" stroke-width="2.0" stroke-linecap="butt" d="m394.37534 443.95538l0 78.595825" fill-rule="nonzero"/><path stroke="#9e9e9e" stroke-width="2.0" stroke-linecap="butt" d="m470.34384 443.95538l0 78.595825" fill-rule="nonzero"/><path stroke="#9e9e9e" stroke-width="2.0" stroke-linecap="butt" d="m546.3123 443.95538l0 78.595825" fill-rule="nonzero"/><path stroke="#9e9e9e" stroke-width="2.0" stroke-linecap="butt" d="m622.2808 443.95538l0 78.595825" fill-rule="nonzero"/><path stroke="#9e9e9e" stroke-width="2.0" stroke-linecap="butt" d="m89.50131 444.95538l533.77954 0" fill-rule="nonzero"/><path stroke="#9e9e9e" stroke-width="2.0" stroke-linecap="butt" d="m89.50131 521.5512l533.77954 0" fill-rule="nonzero"/><path fill="#000000" d="m143.45808 469.66537l0 0.78125q-1.546875 0.25 -2.75 1.640625q-0.875 1.046875 -2.609375 4.890625l-9.734375 21.578125l-0.6875076 0l-9.671875 -22.453125q-1.75 -4.0625 -2.34375 -4.765625q-0.59375 -0.703125 -2.25 -0.890625l0 -0.78125l13.546875 0l0 0.78125l-0.46875 0q-1.828125 0 -2.5 0.453125q-0.46875 0.3125 -0.46875 0.921875q0 0.375 0.15625 0.890625q0.171875 0.5 1.125 2.734375l6.0312576 14.046875l5.578125 -12.515625q1.0 -2.265625 1.21875 -3.03125q0.234375 -0.78125 0.234375 -1.3125q0 -0.625 -0.328125 -1.109375q-0.328125 -0.484375 -0.984375 -0.734375q-0.890625 -0.34375 -2.375 -0.34375l0 -0.78125l9.28125 0z" fill-rule="nonzero"/><path fill="#000000" d="m211.779 497.14975l0 0.765625l-14.765625 0l0 -0.765625l0.9375 0q1.21875 0 1.96875 -0.4375q0.546875 -0.296875 0.84375 -1.0q0.21875 -0.5 0.21875 -2.625l0 -18.578125q0 -2.171875 -0.234375 -2.703125q-0.21875 -0.546875 -0.921875 -0.953125q-0.6875 -0.40625 -1.875 -0.40625l-0.9375 0l0 -0.78125l14.765625 0l0 0.78125l-0.9375 0q-1.234375 0 -1.984375 0.4375q-0.546875 0.28125 -0.859375 1.0q-0.21875 0.5 -0.21875 2.625l0 18.578125q0 2.15625 0.234375 2.703125q0.234375 0.546875 0.9375 0.953125q0.703125 0.40625 1.890625 0.40625l0.9375 0z" fill-rule="nonzero"/><path fill="#000000" d="m272.34503 497.14975l0 0.765625l-14.765625 0l0 -0.765625l0.9375 0q1.21875 0 1.96875 -0.4375q0.546875 -0.296875 0.84375 -1.0q0.21875 -0.5 0.21875 -2.625l0 -18.578125q0 -2.171875 -0.234375 -2.703125q-0.21875 -0.546875 -0.921875 -0.953125q-0.6875 -0.40625 -1.875 -0.40625l-0.9375 0l0 -0.78125l14.765625 0l0 0.78125l-0.9375 0q-1.234375 0 -1.984375 0.4375q-0.546875 0.28125 -0.859375 1.0q-0.21875 0.5 -0.21875 2.625l0 18.578125q0 2.15625 0.234375 2.703125q0.234375 0.546875 0.9375 0.953125q0.703125 0.40625 1.890625 0.40625l0.9375 0zm31.350098 -27.484375l0 0.78125q-1.546875 0.25 -2.75 1.640625q-0.875 1.046875 -2.609375 4.890625l-9.734375 21.578125l-0.6875 0l-9.671875 -22.453125q-1.75 -4.0625 -2.34375 -4.765625q-0.59375 -0.703125 -2.25 -0.890625l0 -0.78125l13.546875 0l0 0.78125l-0.46875 0q-1.828125 0 -2.5 0.453125q-0.46875 0.3125 -0.46875 0.921875q0 0.375 0.15625 0.890625q0.171875 0.5 1.125 2.734375l6.03125 14.046875l5.578125 -12.515625q1.0 -2.265625 1.21875 -3.03125q0.234375 -0.78125 0.234375 -1.3125q0 -0.625 -0.328125 -1.109375q-0.328125 -0.484375 -0.984375 -0.734375q-0.890625 -0.34375 -2.375 -0.34375l0 -0.78125l9.28125 0z" fill-rule="nonzero"/><path fill="#000000" d="m371.3636 469.66537l0 0.78125q-1.546875 0.25 -2.75 1.640625q-0.875 1.046875 -2.609375 4.890625l-9.734375 21.578125l-0.6875 0l-9.671875 -22.453125q-1.75 -4.0625 -2.34375 -4.765625q-0.59375 -0.703125 -2.25 -0.890625l0 -0.78125l13.546875 0l0 0.78125l-0.46875 0q-1.828125 0 -2.5 0.453125q-0.46875 0.3125 -0.46875 0.921875q0 0.375 0.15625 0.890625q0.171875 0.5 1.125 2.734375l6.03125 14.046875l5.578125 -12.515625q1.0 -2.265625 1.21875 -3.03125q0.234375 -0.78125 0.234375 -1.3125q0 -0.625 -0.328125 -1.109375q-0.328125 -0.484375 -0.984375 -0.734375q-0.890625 -0.34375 -2.375 -0.34375l0 -0.78125l9.28125 0z" fill-rule="nonzero"/><path fill="#000000" d="m426.00424 498.4935l-6.5625 -15.09375q-1.1875 -2.734375 -1.859375 -3.453125q-0.484375 -0.546875 -1.421875 -0.734375l0 -0.765625l10.3594055 0l0 0.765625q-0.9844055 0 -1.3281555 0.359375q-0.5 0.453125 -0.5 1.078125q0 0.765625 0.90625 2.890625l3.2031555 7.3125l2.5625 -6.3125q1.109375 -2.703125 1.109375 -3.828125q0 -0.640625 -0.46875 -1.046875q-0.46875 -0.40625 -1.65625 -0.453125l0 -0.765625l6.375 0l0 0.765625q-0.921875 0.125 -1.5 0.6875q-0.578125 0.5625 -1.75 3.3125l-6.5 15.28125l-0.9687805 0zm17.21878 -29.484375q1.359375 0 2.296875 0.953125q0.9375 0.9375 0.9375 2.265625q0 1.34375 -0.953125 2.28125q-0.953125 0.9375 -2.28125 0.9375q-1.328125 0 -2.265625 -0.9375q-0.9375 -0.9375 -0.9375 -2.28125q0 -1.328125 0.9375 -2.265625q0.9375 -0.953125 2.265625 -0.953125zm2.921875 9.4375l0 15.421875q0 2.0625 0.46875 2.640625q0.484375 0.578125 1.875 0.65625l0 0.75l-10.515625 0l0 -0.75q1.296875 -0.046875 1.921875 -0.75q0.40625 -0.484375 0.40625 -2.546875l0 -11.359375q0 -2.0625 -0.484375 -2.640625q-0.46875 -0.578125 -1.84375 -0.65625l0 -0.765625l8.171875 0z" fill-rule="nonzero"/><path fill="#000000" d="m496.67618 469.00912q1.359375 0 2.296875 0.953125q0.9375 0.9375 0.9375 2.265625q0 1.34375 -0.953125 2.28125q-0.953125 0.9375 -2.28125 0.9375q-1.328125 0 -2.265625 -0.9375q-0.9375 -0.9375 -0.9375 -2.28125q0 -1.328125 0.9375 -2.265625q0.9375 -0.953125 2.265625 -0.953125zm2.921875 9.4375l0 15.421875q0 2.0625 0.46875 2.640625q0.484375 0.578125 1.875 0.65625l0 0.75l-10.515625 0l0 -0.75q1.296875 -0.046875 1.921875 -0.75q0.40625 -0.484375 0.40625 -2.546875l0 -11.359375q0 -2.0625 -0.484375 -2.640625q-0.46875 -0.578125 -1.84375 -0.65625l0 -0.765625l8.171875 0zm8.929382 -9.4375q1.359375 0 2.296875 0.953125q0.9375 0.9375 0.9375 2.265625q0 1.34375 -0.953125 2.28125q-0.953125 0.9375 -2.28125 0.9375q-1.328125 0 -2.265625 -0.9375q-0.9375 -0.9375 -0.9375 -2.28125q0 -1.328125 0.9375 -2.265625q0.9375 -0.953125 2.265625 -0.953125zm2.921875 9.4375l0 15.421875q0 2.0625 0.46875 2.640625q0.48440552 0.578125 1.8750305 0.65625l0 0.75l-10.5156555 0l0 -0.75q1.296875 -0.046875 1.921875 -0.75q0.40625 -0.484375 0.40625 -2.546875l0 -11.359375q0 -2.0625 -0.484375 -2.640625q-0.46875 -0.578125 -1.84375 -0.65625l0 -0.765625l8.171875 0zm8.929413 -9.4375q1.359375 0 2.296875 0.953125q0.9375 0.9375 0.9375 2.265625q0 1.34375 -0.953125 2.28125q-0.953125 0.9375 -2.28125 0.9375q-1.328125 0 -2.265625 -0.9375q-0.9375 -0.9375 -0.9375 -2.28125q0 -1.328125 0.9375 -2.265625q0.9375 -0.953125 2.265625 -0.953125zm2.921875 9.4375l0 15.421875q0 2.0625 0.46875 2.640625q0.484375 0.578125 1.875 0.65625l0 0.75l-10.515625 0l0 -0.75q1.296875 -0.046875 1.921875 -0.75q0.40625 -0.484375 0.40625 -2.546875l0 -11.359375q0 -2.0625 -0.484375 -2.640625q-0.46875 -0.578125 -1.84375 -0.65625l0 -0.765625l8.171875 0z" fill-rule="nonzero"/><path fill="#000000" d="m599.2691 469.66537l0 0.78125q-1.546875 0.25 -2.75 1.640625q-0.875 1.046875 -2.609375 4.890625l-9.734375 21.578125l-0.6875 0l-9.671875 -22.453125q-1.75 -4.0625 -2.34375 -4.765625q-0.59375 -0.703125 -2.25 -0.890625l0 -0.78125l13.546875 0l0 0.78125l-0.46875 0q-1.828125 0 -2.5 0.453125q-0.46875 0.3125 -0.46875 0.921875q0 0.375 0.15625 0.890625q0.171875 0.5 1.125 2.734375l6.03125 14.046875l5.578125 -12.515625q1.0 -2.265625 1.21875 -3.03125q0.234375 -0.78125 0.234375 -1.3125q0 -0.625 -0.328125 -1.109375q-0.328125 -0.484375 -0.984375 -0.734375q-0.890625 -0.34375 -2.375 -0.34375l0 -0.78125l9.28125 0z" fill-rule="nonzero"/><path fill="#000000" fill-opacity="0.0" d="m645.55646 53.90026l211.49603 0l0 90.362206l-211.49603 0z" fill-rule="evenodd"/><path fill="#000000" d="m677.0877 85.907135l-20.15625 0l0 -3.5l20.15625 0l0 3.5zm0 9.265625l-20.15625 0l0 -3.5l20.15625 0l0 3.5z" fill-rule="nonzero"/><path fill="#000000" d="m707.73206 97.29776l11.390625 -14.640625l0.984375 2.015625l-11.390625 14.453125l-0.984375 -1.828125zm6.09375 7.03125q-2.640625 0 -4.484375 -1.578125q-1.828125 -1.578125 -2.78125 -4.625q-0.953125 -3.046875 -0.953125 -7.40625q0 -4.21875 0.953125 -7.265625q0.953125 -3.046875 2.78125 -4.6875q1.84375 -1.65625 4.484375 -1.65625q2.65625 0 4.484375 1.65625q1.84375 1.640625 2.796875 4.6875q0.953125 3.046875 0.953125 7.265625q0 4.359375 -0.953125 7.40625q-0.953125 3.046875 -2.796875 4.625q-1.828125 1.578125 -4.484375 1.578125zm0 -2.59375q1.625 0 2.78125 -1.28125q1.15625 -1.28125 1.765625 -3.734375q0.625 -2.453125 0.625 -6.0q0 -3.375 -0.625 -5.8125q-0.609375 -2.453125 -1.765625 -3.8125q-1.15625 -1.375 -2.78125 -1.375q-1.609375 0 -2.765625 1.375q-1.15625 1.359375 -1.78125 3.8125q-0.609375 2.4375 -0.609375 5.8125q0 3.546875 0.609375 6.0q0.625 2.453125 1.78125 3.734375q1.15625 1.28125 2.765625 1.28125zm20.828125 2.59375q-1.03125 0 -1.765625 -0.71875q-0.71875 -0.734375 -0.71875 -1.71875q0 -0.96875 0.71875 -1.6875q0.734375 -0.734375 1.765625 -0.734375q0.984375 0 1.703125 0.734375q0.71875 0.71875 0.71875 1.6875q0 0.984375 -0.71875 1.71875q-0.71875 0.71875 -1.703125 0.71875zm20.984314 -0.46875l0 -22.90625l-5.375 1.578125l-0.6875 -1.65625l6.953125 -3.640625l2.09375 0l0 26.625l-2.984375 0zm25.078125 0l0 -6.53125l-11.515625 0l0 -2.171875l12.15625 -17.921875l2.515625 0l0 17.625l3.421875 0l0 2.515625l-3.421875 0l0 6.484375l-3.15625 0zm-8.0625 -9.046875l8.0625 0l0 -12.203125l-8.0625 12.203125zm25.640564 9.046875l0 -22.90625l-5.375 1.578125l-0.6875 -1.65625l6.953125 -3.640625l2.09375 0l0 26.625l-2.984375 0zm21.75 0.46875q-2.09375 0 -4.015625 -0.765625q-1.90625 -0.765625 -3.28125 -2.265625l1.96875 -2.34375l0.296875 -0.34375l0.21875 0.21875q0.03125 0.34375 0.15625 0.671875q0.140625 0.3125 0.609375 0.8125q0.71875 0.640625 1.65625 1.046875q0.9375 0.40625 2.265625 0.40625q1.703125 0 2.8125 -0.671875q1.109375 -0.6875 1.65625 -1.90625q0.5625 -1.21875 0.5625 -2.75q0 -1.53125 -0.53125 -2.59375q-0.53125 -1.078125 -1.515625 -1.6875q-0.984375 -0.625 -2.34375 -0.859375q-1.359375 -0.234375 -3.078125 -0.0625l0 -2.390625q2.046875 0 3.34375 -0.421875q1.3125 -0.4375 2.015625 -1.15625q0.703125 -0.71875 0.953125 -1.671875q0.265625 -0.96875 0.265625 -2.0q0 -0.890625 -0.28125 -1.609375q-0.28125 -0.734375 -0.765625 -1.234375q-0.484375 -0.515625 -1.203125 -0.796875q-0.703125 -0.28125 -1.546875 -0.28125q-0.859375 0 -1.6875 0.203125q-0.828125 0.1875 -1.625 0.609375q-0.78125 0.421875 -1.546875 1.15625l-1.796875 -1.796875q1.453125 -1.5 3.171875 -2.109375q1.734375 -0.625 3.4375 -0.625q2.171875 0 3.703125 0.84375q1.546875 0.828125 2.375 2.328125q0.828125 1.484375 0.828125 3.4375q0 1.375 -0.453125 2.59375q-0.4375 1.203125 -1.375 2.109375q-0.9375 0.890625 -2.34375 1.359375q1.484375 0.46875 2.640625 1.390625q1.15625 0.921875 1.796875 2.25q0.640625 1.3125 0.640625 3.140625q0 2.09375 -0.921875 3.875q-0.921875 1.765625 -2.6875 2.828125q-1.765625 1.0625 -4.375 1.0625l0 0z" fill-rule="nonzero"/><path fill="#000000" fill-opacity="0.0" d="m645.55646 149.90027l223.33856 0l0 90.3622l-223.33856 0z" fill-rule="evenodd"/><path fill="#000000" d="m677.0877 181.90714l-20.15625 0l0 -3.5l20.15625 0l0 3.5zm0 9.265625l-20.15625 0l0 -3.5l20.15625 0l0 3.5z" fill-rule="nonzero"/><path fill="#000000" d="m707.73206 193.29776l11.390625 -14.640625l0.984375 2.015625l-11.390625 14.453125l-0.984375 -1.828125zm6.09375 7.03125q-2.640625 0 -4.484375 -1.578125q-1.828125 -1.578125 -2.78125 -4.625q-0.953125 -3.046875 -0.953125 -7.40625q0 -4.21875 0.953125 -7.265625q0.953125 -3.046875 2.78125 -4.6875q1.84375 -1.65625 4.484375 -1.65625q2.65625 0 4.484375 1.65625q1.84375 1.640625 2.796875 4.6875q0.953125 3.046875 0.953125 7.265625q0 4.359375 -0.953125 7.40625q-0.953125 3.046875 -2.796875 4.625q-1.828125 1.578125 -4.484375 1.578125zm0 -2.59375q1.625 0 2.78125 -1.28125q1.15625 -1.28125 1.765625 -3.734375q0.625 -2.453125 0.625 -6.0q0 -3.375 -0.625 -5.8125q-0.609375 -2.453125 -1.765625 -3.8125q-1.15625 -1.375 -2.78125 -1.375q-1.609375 0 -2.765625 1.375q-1.15625 1.359375 -1.78125 3.8125q-0.609375 2.4375 -0.609375 5.8125q0 3.546875 0.609375 6.0q0.625 2.453125 1.78125 3.734375q1.15625 1.28125 2.765625 1.28125zm20.828125 2.59375q-1.03125 0 -1.765625 -0.71875q-0.71875 -0.734375 -0.71875 -1.71875q0 -0.96875 0.71875 -1.6875q0.734375 -0.734375 1.765625 -0.734375q0.984375 0 1.703125 0.734375q0.71875 0.71875 0.71875 1.6875q0 0.984375 -0.71875 1.71875q-0.71875 0.71875 -1.703125 0.71875zm14.281189 -2.859375q2.3125 -2.34375 4.21875 -4.265625q1.921875 -1.921875 3.4375 -3.5625q1.515625 -1.640625 2.578125 -3.109375q1.078125 -1.46875 1.625 -2.890625q0.5625 -1.4375 0.5625 -3.015625q0 -1.375 -0.34375 -2.3125q-0.34375 -0.9375 -0.96875 -1.5q-0.609375 -0.578125 -1.453125 -0.828125q-0.828125 -0.265625 -1.765625 -0.265625q-1.015625 0 -1.953125 0.296875q-0.9375 0.296875 -1.796875 0.875q-0.859375 0.578125 -1.578125 1.515625q-0.375 0.59375 -0.46875 0.921875q-0.078125 0.3125 -0.046875 0.65625l-0.171875 0.203125l-0.328125 -0.203125l-2.1875 -1.703125q0.859375 -1.671875 2.140625 -2.8125q1.28125 -1.15625 2.890625 -1.75q1.625 -0.609375 3.46875 -0.609375q2.25 0 3.953125 0.921875q1.71875 0.921875 2.6875 2.625q0.984375 1.703125 0.984375 4.046875q0 1.75 -0.640625 3.390625q-0.640625 1.640625 -1.75 3.21875q-1.109375 1.578125 -2.609375 3.15625q-1.484375 1.578125 -3.171875 3.265625q-1.671875 1.6875 -3.46875 3.515625l9.890625 0q0.734375 0 1.03125 -0.078125q0.296875 -0.078125 0.546875 -0.34375l0.296875 0l0 0.421875l0 2.609375l-15.609375 0l0 -2.390625zm22.78125 -4.171875l11.390625 -14.640625l0.984375 2.015625l-11.390625 14.453125l-0.984375 -1.828125zm6.09375 7.03125q-2.640625 0 -4.484375 -1.578125q-1.828125 -1.578125 -2.78125 -4.625q-0.953125 -3.046875 -0.953125 -7.40625q0 -4.21875 0.953125 -7.265625q0.953125 -3.046875 2.78125 -4.6875q1.84375 -1.65625 4.484375 -1.65625q2.65625 0 4.484375 1.65625q1.84375 1.640625 2.796875 4.6875q0.953125 3.046875 0.953125 7.265625q0 4.359375 -0.953125 7.40625q-0.953125 3.046875 -2.796875 4.625q-1.828125 1.578125 -4.484375 1.578125zm0 -2.59375q1.625 0 2.78125 -1.28125q1.15625 -1.28125 1.765625 -3.734375q0.625 -2.453125 0.625 -6.0q0 -3.375 -0.625 -5.8125q-0.609375 -2.453125 -1.765625 -3.8125q-1.15625 -1.375 -2.78125 -1.375q-1.609375 0 -2.765625 1.375q-1.15625 1.359375 -1.78125 3.8125q-0.609375 2.4375 -0.609375 5.8125q0 3.546875 0.609375 6.0q0.625 2.453125 1.78125 3.734375q1.15625 1.28125 2.765625 1.28125zm21.328064 2.546875q-2.515625 0 -4.328125 -0.953125q-1.8125 -0.96875 -2.796875 -2.578125q-0.96875 -1.625 -0.96875 -3.59375q0 -1.53125 0.65625 -2.9375q0.65625 -1.40625 1.84375 -2.578125q1.203125 -1.171875 2.828125 -1.90625q-1.1875 -0.640625 -2.109375 -1.59375q-0.921875 -0.953125 -1.4375 -2.140625q-0.5 -1.203125 -0.5 -2.484375q0 -1.84375 0.78125 -3.3125q0.796875 -1.46875 2.34375 -2.359375q1.5625 -0.90625 3.90625 -0.90625q2.46875 0 4.0 0.859375q1.546875 0.859375 2.296875 2.28125q0.75 1.421875 0.75 3.171875q0 0.9375 -0.3125 1.890625q-0.296875 0.9375 -0.859375 1.765625q-0.546875 0.828125 -1.3125 1.53125q-0.765625 0.703125 -1.75 1.21875q1.15625 0.515625 2.09375 1.3125q0.9375 0.78125 1.625 1.75q0.6875 0.953125 1.046875 2.046875q0.359375 1.078125 0.359375 2.21875q0 2.09375 -1.0 3.734375q-1.0 1.640625 -2.8125 2.609375q-1.8125 0.953125 -4.34375 0.953125zm0.09375 -2.6875q1.65625 0 2.765625 -0.609375q1.109375 -0.625 1.6875 -1.671875q0.578125 -1.046875 0.578125 -2.328125q0 -0.96875 -0.40625 -1.890625q-0.40625 -0.921875 -1.15625 -1.703125q-0.734375 -0.796875 -1.78125 -1.4375q-1.046875 -0.640625 -2.328125 -1.015625q-0.9375 0.375 -1.78125 1.0q-0.828125 0.625 -1.421875 1.421875q-0.59375 0.78125 -0.9375 1.65625q-0.34375 0.859375 -0.34375 1.84375q0 1.28125 0.59375 2.359375q0.609375 1.0625 1.75 1.71875q1.15625 0.65625 2.78125 0.65625zm0.640625 -13.0q0.765625 -0.4375 1.421875 -1.03125q0.671875 -0.59375 1.15625 -1.265625q0.484375 -0.6875 0.765625 -1.4375q0.28125 -0.75 0.28125 -1.515625q0 -1.03125 -0.46875 -1.90625q-0.46875 -0.875 -1.40625 -1.421875q-0.9375 -0.5625 -2.34375 -0.5625q-1.40625 0 -2.3125 0.546875q-0.890625 0.53125 -1.34375 1.390625q-0.4375 0.84375 -0.4375 1.828125q0 0.96875 0.359375 1.75q0.359375 0.765625 1.0 1.390625q0.640625 0.609375 1.484375 1.171875q0.859375 0.546875 1.84375 1.0625zm20.171875 15.734375q-2.09375 0 -4.015625 -0.765625q-1.90625 -0.765625 -3.28125 -2.265625l1.96875 -2.34375l0.296875 -0.34375l0.21875 0.21875q0.03125 0.34375 0.15625 0.671875q0.140625 0.3125 0.609375 0.8125q0.71875 0.640625 1.65625 1.046875q0.9375 0.40625 2.265625 0.40625q1.703125 0 2.8125 -0.671875q1.109375 -0.6875 1.65625 -1.90625q0.5625 -1.21875 0.5625 -2.75q0 -1.53125 -0.53125 -2.59375q-0.53125 -1.078125 -1.515625 -1.6875q-0.984375 -0.625 -2.34375 -0.859375q-1.359375 -0.234375 -3.078125 -0.0625l0 -2.390625q2.046875 0 3.34375 -0.421875q1.3125 -0.4375 2.015625 -1.15625q0.703125 -0.71875 0.953125 -1.671875q0.265625 -0.96875 0.265625 -2.0q0 -0.890625 -0.28125 -1.609375q-0.28125 -0.734375 -0.765625 -1.234375q-0.484375 -0.515625 -1.203125 -0.796875q-0.703125 -0.28125 -1.546875 -0.28125q-0.859375 0 -1.6875 0.203125q-0.828125 0.1875 -1.625 0.609375q-0.78125 0.421875 -1.546875 1.15625l-1.796875 -1.796875q1.453125 -1.5 3.171875 -2.109375q1.734375 -0.625 3.4375 -0.625q2.171875 0 3.703125 0.84375q1.546875 0.828125 2.375 2.328125q0.828125 1.484375 0.828125 3.4375q0 1.375 -0.453125 2.59375q-0.4375 1.203125 -1.375 2.109375q-0.9375 0.890625 -2.34375 1.359375q1.484375 0.46875 2.640625 1.390625q1.15625 0.921875 1.796875 2.25q0.640625 1.3125 0.640625 3.140625q0 2.09375 -0.921875 3.875q-0.921875 1.765625 -2.6875 2.828125q-1.765625 1.0625 -4.375 1.0625l0 0z" fill-rule="nonzero"/><path fill="#f4cccc" d="m645.55646 245.90027l223.33856 0l0 90.36221l-223.33856 0z" fill-rule="evenodd"/><path fill="#000000" d="m677.0877 277.90714l-20.15625 0l0 -3.5l20.15625 0l0 3.5zm0 9.265625l-20.15625 0l0 -3.5l20.15625 0l0 3.5z" fill-rule="nonzero"/><path fill="#000000" d="m707.73206 289.29776l11.390625 -14.640625l0.984375 2.015625l-11.390625 14.453125l-0.984375 -1.828125zm6.09375 7.03125q-2.640625 0 -4.484375 -1.578125q-1.828125 -1.578125 -2.78125 -4.625q-0.953125 -3.046875 -0.953125 -7.40625q0 -4.21875 0.953125 -7.265625q0.953125 -3.046875 2.78125 -4.6875q1.84375 -1.65625 4.484375 -1.65625q2.65625 0 4.484375 1.65625q1.84375 1.640625 2.796875 4.6875q0.953125 3.046875 0.953125 7.265625q0 4.359375 -0.953125 7.40625q-0.953125 3.046875 -2.796875 4.625q-1.828125 1.578125 -4.484375 1.578125zm0 -2.59375q1.625 0 2.78125 -1.28125q1.15625 -1.28125 1.765625 -3.734375q0.625 -2.453125 0.625 -6.0q0 -3.375 -0.625 -5.8125q-0.609375 -2.453125 -1.765625 -3.8125q-1.15625 -1.375 -2.78125 -1.375q-1.609375 0 -2.765625 1.375q-1.15625 1.359375 -1.78125 3.8125q-0.609375 2.4375 -0.609375 5.8125q0 3.546875 0.609375 6.0q0.625 2.453125 1.78125 3.734375q1.15625 1.28125 2.765625 1.28125zm20.828125 2.59375q-1.03125 0 -1.765625 -0.71875q-0.71875 -0.734375 -0.71875 -1.71875q0 -0.96875 0.71875 -1.6875q0.734375 -0.734375 1.765625 -0.734375q0.984375 0 1.703125 0.734375q0.71875 0.71875 0.71875 1.6875q0 0.984375 -0.71875 1.71875q-0.71875 0.71875 -1.703125 0.71875zm15.734314 -7.03125l11.390625 -14.640625l0.984375 2.015625l-11.390625 14.453125l-0.984375 -1.828125zm6.09375 7.03125q-2.640625 0 -4.484375 -1.578125q-1.828125 -1.578125 -2.78125 -4.625q-0.953125 -3.046875 -0.953125 -7.40625q0 -4.21875 0.953125 -7.265625q0.953125 -3.046875 2.78125 -4.6875q1.84375 -1.65625 4.484375 -1.65625q2.65625 0 4.484375 1.65625q1.84375 1.640625 2.796875 4.6875q0.953125 3.046875 0.953125 7.265625q0 4.359375 -0.953125 7.40625q-0.953125 3.046875 -2.796875 4.625q-1.828125 1.578125 -4.484375 1.578125zm0 -2.59375q1.625 0 2.78125 -1.28125q1.15625 -1.28125 1.765625 -3.734375q0.625 -2.453125 0.625 -6.0q0 -3.375 -0.625 -5.8125q-0.609375 -2.453125 -1.765625 -3.8125q-1.15625 -1.375 -2.78125 -1.375q-1.609375 0 -2.765625 1.375q-1.15625 1.359375 -1.78125 3.8125q-0.609375 2.4375 -0.609375 5.8125q0 3.546875 0.609375 6.0q0.625 2.453125 1.78125 3.734375q1.15625 1.28125 2.765625 1.28125zm17.28125 2.125q1.234375 -4.09375 2.53125 -8.03125q1.3125 -3.953125 2.6875 -7.875q1.390625 -3.921875 2.890625 -7.859375l-11.34375 0l0 -2.8125l15.046875 0l0 1.671875q-1.1875 3.0625 -2.34375 6.140625q-1.15625 3.0625 -2.21875 6.1875q-1.0625 3.109375 -2.03125 6.25q-0.953125 3.125 -1.84375 6.328125l-3.375 0zm24.953064 0.46875q-2.09375 0 -4.015625 -0.765625q-1.90625 -0.765625 -3.28125 -2.265625l1.96875 -2.34375l0.296875 -0.34375l0.21875 0.21875q0.03125 0.34375 0.15625 0.671875q0.140625 0.3125 0.609375 0.8125q0.71875 0.640625 1.65625 1.046875q0.9375 0.40625 2.265625 0.40625q1.703125 0 2.8125 -0.671875q1.109375 -0.6875 1.65625 -1.90625q0.5625 -1.21875 0.5625 -2.75q0 -1.53125 -0.53125 -2.59375q-0.53125 -1.078125 -1.515625 -1.6875q-0.984375 -0.625 -2.34375 -0.859375q-1.359375 -0.234375 -3.078125 -0.0625l0 -2.390625q2.046875 0 3.34375 -0.421875q1.3125 -0.4375 2.015625 -1.15625q0.703125 -0.71875 0.953125 -1.671875q0.265625 -0.96875 0.265625 -2.0q0 -0.890625 -0.28125 -1.609375q-0.28125 -0.734375 -0.765625 -1.234375q-0.484375 -0.515625 -1.203125 -0.796875q-0.703125 -0.28125 -1.546875 -0.28125q-0.859375 0 -1.6875 0.203125q-0.828125 0.1875 -1.625 0.609375q-0.78125 0.421875 -1.546875 1.15625l-1.796875 -1.796875q1.453125 -1.5 3.171875 -2.109375q1.734375 -0.625 3.4375 -0.625q2.171875 0 3.703125 0.84375q1.546875 0.828125 2.375 2.328125q0.828125 1.484375 0.828125 3.4375q0 1.375 -0.453125 2.59375q-0.4375 1.203125 -1.375 2.109375q-0.9375 0.890625 -2.34375 1.359375q1.484375 0.46875 2.640625 1.390625q1.15625 0.921875 1.796875 2.25q0.640625 1.3125 0.640625 3.140625q0 2.09375 -0.921875 3.875q-0.921875 1.765625 -2.6875 2.828125q-1.765625 1.0625 -4.375 1.0625l0 0zm24.65625 -0.46875l0 -6.53125l-11.515625 0l0 -2.171875l12.15625 -17.921875l2.515625 0l0 17.625l3.421875 0l0 2.515625l-3.421875 0l0 6.484375l-3.15625 0zm-8.0625 -9.046875l8.0625 0l0 -12.203125l-8.0625 12.203125z" fill-rule="nonzero"/><path fill="#000000" fill-opacity="0.0" d="m645.55646 341.90027l223.33856 0l0 90.36221l-223.33856 0z" fill-rule="evenodd"/><path fill="#000000" d="m677.0877 373.90714l-20.15625 0l0 -3.5l20.15625 0l0 3.5zm0 9.265625l-20.15625 0l0 -3.5l20.15625 0l0 3.5z" fill-rule="nonzero"/><path fill="#000000" d="m707.73206 385.29776l11.390625 -14.640625l0.984375 2.015625l-11.390625 14.453125l-0.984375 -1.828125zm6.09375 7.03125q-2.640625 0 -4.484375 -1.578125q-1.828125 -1.578125 -2.78125 -4.625q-0.953125 -3.046875 -0.953125 -7.40625q0 -4.21875 0.953125 -7.265625q0.953125 -3.046875 2.78125 -4.6875q1.84375 -1.65625 4.484375 -1.65625q2.65625 0 4.484375 1.65625q1.84375 1.640625 2.796875 4.6875q0.953125 3.046875 0.953125 7.265625q0 4.359375 -0.953125 7.40625q-0.953125 3.046875 -2.796875 4.625q-1.828125 1.578125 -4.484375 1.578125zm0 -2.59375q1.625 0 2.78125 -1.28125q1.15625 -1.28125 1.765625 -3.734375q0.625 -2.453125 0.625 -6.0q0 -3.375 -0.625 -5.8125q-0.609375 -2.453125 -1.765625 -3.8125q-1.15625 -1.375 -2.78125 -1.375q-1.609375 0 -2.765625 1.375q-1.15625 1.359375 -1.78125 3.8125q-0.609375 2.4375 -0.609375 5.8125q0 3.546875 0.609375 6.0q0.625 2.453125 1.78125 3.734375q1.15625 1.28125 2.765625 1.28125zm20.828125 2.59375q-1.03125 0 -1.765625 -0.71875q-0.71875 -0.734375 -0.71875 -1.71875q0 -0.96875 0.71875 -1.6875q0.734375 -0.734375 1.765625 -0.734375q0.984375 0 1.703125 0.734375q0.71875 0.71875 0.71875 1.6875q0 0.984375 -0.71875 1.71875q-0.71875 0.71875 -1.703125 0.71875zm15.734314 -7.03125l11.390625 -14.640625l0.984375 2.015625l-11.390625 14.453125l-0.984375 -1.828125zm6.09375 7.03125q-2.640625 0 -4.484375 -1.578125q-1.828125 -1.578125 -2.78125 -4.625q-0.953125 -3.046875 -0.953125 -7.40625q0 -4.21875 0.953125 -7.265625q0.953125 -3.046875 2.78125 -4.6875q1.84375 -1.65625 4.484375 -1.65625q2.65625 0 4.484375 1.65625q1.84375 1.640625 2.796875 4.6875q0.953125 3.046875 0.953125 7.265625q0 4.359375 -0.953125 7.40625q-0.953125 3.046875 -2.796875 4.625q-1.828125 1.578125 -4.484375 1.578125zm0 -2.59375q1.625 0 2.78125 -1.28125q1.15625 -1.28125 1.765625 -3.734375q0.625 -2.453125 0.625 -6.0q0 -3.375 -0.625 -5.8125q-0.609375 -2.453125 -1.765625 -3.8125q-1.15625 -1.375 -2.78125 -1.375q-1.609375 0 -2.765625 1.375q-1.15625 1.359375 -1.78125 3.8125q-0.609375 2.4375 -0.609375 5.8125q0 3.546875 0.609375 6.0q0.625 2.453125 1.78125 3.734375q1.15625 1.28125 2.765625 1.28125zm21.328125 2.546875q-2.515625 0 -4.328125 -0.953125q-1.8125 -0.96875 -2.796875 -2.578125q-0.96875 -1.625 -0.96875 -3.59375q0 -1.53125 0.65625 -2.9375q0.65625 -1.40625 1.84375 -2.578125q1.203125 -1.171875 2.828125 -1.90625q-1.1875 -0.640625 -2.109375 -1.59375q-0.921875 -0.953125 -1.4375 -2.140625q-0.5 -1.203125 -0.5 -2.484375q0 -1.84375 0.78125 -3.3125q0.796875 -1.46875 2.34375 -2.359375q1.5625 -0.90625 3.90625 -0.90625q2.46875 0 4.0 0.859375q1.546875 0.859375 2.296875 2.28125q0.75 1.421875 0.75 3.171875q0 0.9375 -0.3125 1.890625q-0.296875 0.9375 -0.859375 1.765625q-0.546875 0.828125 -1.3125 1.53125q-0.765625 0.703125 -1.75 1.21875q1.15625 0.515625 2.09375 1.3125q0.9375 0.78125 1.625 1.75q0.6875 0.953125 1.046875 2.046875q0.359375 1.078125 0.359375 2.21875q0 2.09375 -1.0 3.734375q-1.0 1.640625 -2.8125 2.609375q-1.8125 0.953125 -4.34375 0.953125zm0.09375 -2.6875q1.65625 0 2.765625 -0.609375q1.109375 -0.625 1.6875 -1.671875q0.578125 -1.046875 0.578125 -2.328125q0 -0.96875 -0.40625 -1.890625q-0.40625 -0.921875 -1.15625 -1.703125q-0.734375 -0.796875 -1.78125 -1.4375q-1.046875 -0.640625 -2.328125 -1.015625q-0.9375 0.375 -1.78125 1.0q-0.828125 0.625 -1.421875 1.421875q-0.59375 0.78125 -0.9375 1.65625q-0.34375 0.859375 -0.34375 1.84375q0 1.28125 0.59375 2.359375q0.609375 1.0625 1.75 1.71875q1.15625 0.65625 2.78125 0.65625zm0.640625 -13.0q0.765625 -0.4375 1.421875 -1.03125q0.671875 -0.59375 1.15625 -1.265625q0.484375 -0.6875 0.765625 -1.4375q0.28125 -0.75 0.28125 -1.515625q0 -1.03125 -0.46875 -1.90625q-0.46875 -0.875 -1.40625 -1.421875q-0.9375 -0.5625 -2.34375 -0.5625q-1.40625 0 -2.3125 0.546875q-0.890625 0.53125 -1.34375 1.390625q-0.4375 0.84375 -0.4375 1.828125q0 0.96875 0.359375 1.75q0.359375 0.765625 1.0 1.390625q0.640625 0.609375 1.484375 1.171875q0.859375 0.546875 1.84375 1.0625zm16.546814 15.265625q1.234375 -4.09375 2.53125 -8.03125q1.3125 -3.953125 2.6875 -7.875q1.390625 -3.921875 2.890625 -7.859375l-11.34375 0l0 -2.8125l15.046875 0l0 1.671875q-1.1875 3.0625 -2.34375 6.140625q-1.15625 3.0625 -2.21875 6.1875q-1.0625 3.109375 -2.03125 6.25q-0.953125 3.125 -1.84375 6.328125l-3.375 0zm19.28125 -6.5625l11.390625 -14.640625l0.984375 2.015625l-11.390625 14.453125l-0.984375 -1.828125zm6.09375 7.03125q-2.640625 0 -4.484375 -1.578125q-1.828125 -1.578125 -2.78125 -4.625q-0.953125 -3.046875 -0.953125 -7.40625q0 -4.21875 0.953125 -7.265625q0.953125 -3.046875 2.78125 -4.6875q1.84375 -1.65625 4.484375 -1.65625q2.65625 0 4.484375 1.65625q1.84375 1.640625 2.796875 4.6875q0.953125 3.046875 0.953125 7.265625q0 4.359375 -0.953125 7.40625q-0.953125 3.046875 -2.796875 4.625q-1.828125 1.578125 -4.484375 1.578125zm0 -2.59375q1.625 0 2.78125 -1.28125q1.15625 -1.28125 1.765625 -3.734375q0.625 -2.453125 0.625 -6.0q0 -3.375 -0.625 -5.8125q-0.609375 -2.453125 -1.765625 -3.8125q-1.15625 -1.375 -2.78125 -1.375q-1.609375 0 -2.765625 1.375q-1.15625 1.359375 -1.78125 3.8125q-0.609375 2.4375 -0.609375 5.8125q0 3.546875 0.609375 6.0q0.625 2.453125 1.78125 3.734375q1.15625 1.28125 2.765625 1.28125z" fill-rule="nonzero"/><path fill="#000000" fill-opacity="0.0" d="m645.55646 437.90027l223.33856 0l0 90.36218l-223.33856 0z" fill-rule="evenodd"/><path fill="#000000" d="m677.0877 469.90714l-20.15625 0l0 -3.5l20.15625 0l0 3.5zm0 9.265625l-20.15625 0l0 -3.5l20.15625 0l0 3.5z" fill-rule="nonzero"/><path fill="#000000" d="m707.73206 481.29776l11.390625 -14.640625l0.984375 2.015625l-11.390625 14.453125l-0.984375 -1.828125zm6.09375 7.03125q-2.640625 0 -4.484375 -1.578125q-1.828125 -1.578125 -2.78125 -4.625q-0.953125 -3.046875 -0.953125 -7.40625q0 -4.21875 0.953125 -7.265625q0.953125 -3.046875 2.78125 -4.6875q1.84375 -1.65625 4.484375 -1.65625q2.65625 0 4.484375 1.65625q1.84375 1.640625 2.796875 4.6875q0.953125 3.046875 0.953125 7.265625q0 4.359375 -0.953125 7.40625q-0.953125 3.046875 -2.796875 4.625q-1.828125 1.578125 -4.484375 1.578125zm0 -2.59375q1.625 0 2.78125 -1.28125q1.15625 -1.28125 1.765625 -3.734375q0.625 -2.453125 0.625 -6.0q0 -3.375 -0.625 -5.8125q-0.609375 -2.453125 -1.765625 -3.8125q-1.15625 -1.375 -2.78125 -1.375q-1.609375 0 -2.765625 1.375q-1.15625 1.359375 -1.78125 3.8125q-0.609375 2.4375 -0.609375 5.8125q0 3.546875 0.609375 6.0q0.625 2.453125 1.78125 3.734375q1.15625 1.28125 2.765625 1.28125zm20.828125 2.59375q-1.03125 0 -1.765625 -0.71875q-0.71875 -0.734375 -0.71875 -1.71875q0 -0.96875 0.71875 -1.6875q0.734375 -0.734375 1.765625 -0.734375q0.984375 0 1.703125 0.734375q0.71875 0.71875 0.71875 1.6875q0 0.984375 -0.71875 1.71875q-0.71875 0.71875 -1.703125 0.71875zm15.734314 -7.03125l11.390625 -14.640625l0.984375 2.015625l-11.390625 14.453125l-0.984375 -1.828125zm6.09375 7.03125q-2.640625 0 -4.484375 -1.578125q-1.828125 -1.578125 -2.78125 -4.625q-0.953125 -3.046875 -0.953125 -7.40625q0 -4.21875 0.953125 -7.265625q0.953125 -3.046875 2.78125 -4.6875q1.84375 -1.65625 4.484375 -1.65625q2.65625 0 4.484375 1.65625q1.84375 1.640625 2.796875 4.6875q0.953125 3.046875 0.953125 7.265625q0 4.359375 -0.953125 7.40625q-0.953125 3.046875 -2.796875 4.625q-1.828125 1.578125 -4.484375 1.578125zm0 -2.59375q1.625 0 2.78125 -1.28125q1.15625 -1.28125 1.765625 -3.734375q0.625 -2.453125 0.625 -6.0q0 -3.375 -0.625 -5.8125q-0.609375 -2.453125 -1.765625 -3.8125q-1.15625 -1.375 -2.78125 -1.375q-1.609375 0 -2.765625 1.375q-1.15625 1.359375 -1.78125 3.8125q-0.609375 2.4375 -0.609375 5.8125q0 3.546875 0.609375 6.0q0.625 2.453125 1.78125 3.734375q1.15625 1.28125 2.765625 1.28125zm20.390625 2.546875q-1.953125 0 -3.53125 -0.609375q-1.578125 -0.625 -2.8125 -1.8125l1.828125 -2.09375l0.296875 -0.34375l0.21875 0.21875q0.046875 0.34375 0.203125 0.625q0.171875 0.265625 0.6875 0.734375q0.59375 0.390625 1.28125 0.5625q0.6875 0.171875 1.578125 0.171875q1.703125 0 2.921875 -0.984375q1.21875 -0.984375 1.984375 -2.640625q0.765625 -1.671875 1.125 -3.71875q0.375 -2.046875 0.375 -4.1875q0 -3.53125 -0.5625 -5.859375q-0.546875 -2.328125 -1.703125 -3.46875q-1.15625 -1.15625 -2.953125 -1.15625q-1.0625 0 -1.953125 0.40625q-0.890625 0.40625 -1.5625 1.203125q-0.65625 0.78125 -1.0 1.890625q-0.34375 1.109375 -0.34375 2.515625q0 1.28125 0.375 2.28125q0.390625 1.0 1.078125 1.703125q0.6875 0.703125 1.5625 1.09375q0.875 0.375 1.84375 0.375q1.5 0 2.546875 -0.328125q1.046875 -0.34375 1.890625 -1.109375q0.859375 -0.78125 1.625 -2.015625l0.21875 3.03125q-0.8125 0.890625 -1.71875 1.578125q-0.890625 0.6875 -2.015625 1.078125q-1.125 0.375 -2.578125 0.375q-1.671875 0 -3.078125 -0.578125q-1.40625 -0.578125 -2.453125 -1.640625q-1.046875 -1.0625 -1.625 -2.53125q-0.5625 -1.484375 -0.5625 -3.28125q0 -1.875 0.59375 -3.453125q0.59375 -1.578125 1.640625 -2.75q1.046875 -1.171875 2.421875 -1.8125q1.390625 -0.640625 2.96875 -0.640625q2.515625 0 4.34375 1.453125q1.84375 1.453125 2.84375 4.0q1.0 2.53125 1.0 5.8125q0 5.375 -1.09375 8.875q-1.078125 3.5 -3.078125 5.234375q-2.0 1.71875 -4.828125 1.796875l0 0zm16.171814 -6.984375l11.390625 -14.640625l0.984375 2.015625l-11.390625 14.453125l-0.984375 -1.828125zm6.09375 7.03125q-2.640625 0 -4.484375 -1.578125q-1.828125 -1.578125 -2.78125 -4.625q-0.953125 -3.046875 -0.953125 -7.40625q0 -4.21875 0.953125 -7.265625q0.953125 -3.046875 2.78125 -4.6875q1.84375 -1.65625 4.484375 -1.65625q2.65625 0 4.484375 1.65625q1.84375 1.640625 2.796875 4.6875q0.953125 3.046875 0.953125 7.265625q0 4.359375 -0.953125 7.40625q-0.953125 3.046875 -2.796875 4.625q-1.828125 1.578125 -4.484375 1.578125zm0 -2.59375q1.625 0 2.78125 -1.28125q1.15625 -1.28125 1.765625 -3.734375q0.625 -2.453125 0.625 -6.0q0 -3.375 -0.625 -5.8125q-0.609375 -2.453125 -1.765625 -3.8125q-1.15625 -1.375 -2.78125 -1.375q-1.609375 0 -2.765625 1.375q-1.15625 1.359375 -1.78125 3.8125q-0.609375 2.4375 -0.609375 5.8125q0 3.546875 0.609375 6.0q0.625 2.453125 1.78125 3.734375q1.15625 1.28125 2.765625 1.28125zm20.390625 2.546875q-1.953125 0 -3.53125 -0.609375q-1.578125 -0.625 -2.8125 -1.8125l1.828125 -2.09375l0.296875 -0.34375l0.21875 0.21875q0.046875 0.34375 0.203125 0.625q0.171875 0.265625 0.6875 0.734375q0.59375 0.390625 1.28125 0.5625q0.6875 0.171875 1.578125 0.171875q1.703125 0 2.921875 -0.984375q1.21875 -0.984375 1.984375 -2.640625q0.765625 -1.671875 1.125 -3.71875q0.375 -2.046875 0.375 -4.1875q0 -3.53125 -0.5625 -5.859375q-0.546875 -2.328125 -1.703125 -3.46875q-1.15625 -1.15625 -2.953125 -1.15625q-1.0625 0 -1.953125 0.40625q-0.890625 0.40625 -1.5625 1.203125q-0.65625 0.78125 -1.0 1.890625q-0.34375 1.109375 -0.34375 2.515625q0 1.28125 0.375 2.28125q0.390625 1.0 1.078125 1.703125q0.6875 0.703125 1.5625 1.09375q0.875 0.375 1.84375 0.375q1.5 0 2.546875 -0.328125q1.046875 -0.34375 1.890625 -1.109375q0.859375 -0.78125 1.625 -2.015625l0.21875 3.03125q-0.8125 0.890625 -1.71875 1.578125q-0.890625 0.6875 -2.015625 1.078125q-1.125 0.375 -2.578125 0.375q-1.671875 0 -3.078125 -0.578125q-1.40625 -0.578125 -2.453125 -1.640625q-1.046875 -1.0625 -1.625 -2.53125q-0.5625 -1.484375 -0.5625 -3.28125q0 -1.875 0.59375 -3.453125q0.59375 -1.578125 1.640625 -2.75q1.046875 -1.171875 2.421875 -1.8125q1.390625 -0.640625 2.96875 -0.640625q2.515625 0 4.34375 1.453125q1.84375 1.453125 2.84375 4.0q1.0 2.53125 1.0 5.8125q0 5.375 -1.09375 8.875q-1.078125 3.5 -3.078125 5.234375q-2.0 1.71875 -4.828125 1.796875l0 0z" fill-rule="nonzero"/><path fill="#efefef" d="m48.24147 575.1671l864.4725 0l0 84.5354l-864.4725 0z" fill-rule="evenodd"/><path fill="#f4cccc" d="m461.81348 584.1671l111.98474 0l0 44.799988l-111.98474 0l0 -44.799988z" fill-rule="nonzero"/><path fill="#000000" d="m111.12489 614.0227l1.3125 -1.3125l0.875 -0.875l-21.71875 0l0 -2.90625l24.640625 0l0.140625 -0.15625l2.34375 -2.328125l-2.046875 -2.046875l-0.4375 -0.4375l-24.640625 0l0 -2.90625l21.71875 0l-1.453125 -1.453125l-0.734375 -0.734375l2.1875 -2.1875l0.59375 0.578125l8.59375 8.609375l0.59375 0.578125l-3.21875 3.203125l-6.5625 6.5625l-2.1875 -2.1875z" fill-rule="nonzero"/><path fill="#000000" d="m149.41402 623.3352l0 -28.34375l10.671875 0l0 2.25l-8.28125 0l0 23.953125l8.328125 0l0 2.140625l-10.71875 0zm17.773499 -9.078125l9.953125 -12.796875l0.859375 1.75l-9.953125 12.65625l-0.859375 -1.609375zm5.328125 6.15625q-2.3125 0 -3.921875 -1.375q-1.59375 -1.390625 -2.4375 -4.046875q-0.84375 -2.671875 -0.84375 -6.484375q0 -3.6875 0.84375 -6.359375q0.84375 -2.671875 2.4375 -4.109375q1.609375 -1.4375 3.921875 -1.4375q2.3125 0 3.921875 1.4375q1.609375 1.4375 2.4375 4.109375q0.84375 2.671875 0.84375 6.359375q0 3.8125 -0.84375 6.484375q-0.828125 2.65625 -2.4375 4.046875q-1.609375 1.375 -3.921875 1.375zm0 -2.265625q1.421875 0 2.421875 -1.125q1.015625 -1.125 1.546875 -3.265625q0.546875 -2.15625 0.546875 -5.25q0 -2.953125 -0.546875 -5.09375q-0.53125 -2.140625 -1.546875 -3.328125q-1.0 -1.203125 -2.421875 -1.203125q-1.421875 0 -2.4375 1.203125q-1.0 1.1875 -1.546875 3.328125q-0.53125 2.140625 -0.53125 5.09375q0 3.09375 0.53125 5.25q0.546875 2.140625 1.546875 3.265625q1.015625 1.125 2.4375 1.125zm18.226624 2.265625q-0.90625 0 -1.546875 -0.625q-0.625 -0.640625 -0.625 -1.5q0 -0.859375 0.625 -1.484375q0.640625 -0.640625 1.546875 -0.640625q0.859375 0 1.484375 0.640625q0.640625 0.625 0.640625 1.484375q0 0.859375 -0.640625 1.5q-0.625 0.625 -1.484375 0.625zm18.351624 -0.40625l0 -20.046875l-4.703125 1.375l-0.59375 -1.453125l6.09375 -3.171875l1.828125 0l0 23.296875l-2.625 0zm21.960999 0l0 -5.71875l-10.078125 0l0 -1.890625l10.640625 -15.6875l2.1875 0l0 15.421875l3.0 0l0 2.203125l-3.0 0l0 5.671875l-2.75 0zm-7.0625 -7.90625l7.0625 0l0 -10.6875l-7.0625 10.6875zm22.429749 7.90625l0 -20.046875l-4.703125 1.375l-0.59375 -1.453125l6.09375 -3.171875l1.828125 0l0 23.296875l-2.625 0zm19.039108 0.40625q-1.828125 0 -3.515625 -0.671875q-1.671875 -0.671875 -2.859375 -1.96875l1.71875 -2.0625l0.25 -0.296875l0.1875 0.1875q0.046875 0.296875 0.15625 0.578125q0.109375 0.28125 0.515625 0.734375q0.640625 0.5625 1.453125 0.921875q0.828125 0.34375 1.984375 0.34375q1.5 0 2.46875 -0.59375q0.96875 -0.609375 1.453125 -1.671875q0.484375 -1.0625 0.484375 -2.40625q0 -1.34375 -0.46875 -2.265625q-0.46875 -0.9375 -1.328125 -1.46875q-0.859375 -0.546875 -2.046875 -0.75q-1.1875 -0.21875 -2.6875 -0.0625l0 -2.09375q1.796875 0 2.921875 -0.375q1.140625 -0.375 1.75 -1.0q0.625 -0.640625 0.84375 -1.46875q0.234375 -0.84375 0.234375 -1.75q0 -0.78125 -0.25 -1.40625q-0.234375 -0.640625 -0.671875 -1.09375q-0.421875 -0.453125 -1.046875 -0.6875q-0.609375 -0.25 -1.359375 -0.25q-0.734375 0 -1.46875 0.171875q-0.734375 0.171875 -1.421875 0.546875q-0.6875 0.375 -1.359375 1.0l-1.5625 -1.5625q1.265625 -1.3125 2.765625 -1.84375q1.515625 -0.546875 3.015625 -0.546875q1.90625 0 3.25 0.734375q1.34375 0.71875 2.0625 2.03125q0.734375 1.296875 0.734375 3.015625q0 1.203125 -0.390625 2.265625q-0.390625 1.0625 -1.21875 1.84375q-0.8125 0.78125 -2.046875 1.203125q1.296875 0.40625 2.296875 1.21875q1.015625 0.796875 1.578125 1.953125q0.5625 1.15625 0.5625 2.75q0 1.84375 -0.8125 3.390625q-0.796875 1.546875 -2.34375 2.484375q-1.546875 0.921875 -3.828125 0.921875l0 0zm17.132874 5.859375l-1.265625 -1.109375q1.046875 -0.96875 1.734375 -2.09375q0.6875 -1.125 0.6875 -1.828125q0 -0.375 -0.28125 -0.703125q-0.265625 -0.3125 -0.671875 -0.609375q-0.390625 -0.296875 -0.671875 -0.6875q-0.265625 -0.390625 -0.265625 -0.875q0 -0.9375 0.609375 -1.5625q0.609375 -0.640625 1.59375 -0.640625q0.96875 0 1.75 0.859375q0.78125 0.859375 0.78125 2.234375q0 0.75 -0.25 1.546875q-0.234375 0.8125 -0.75 1.6875q-0.5 0.875 -1.25 1.828125q-0.734375 0.953125 -1.75 1.953125zm33.906372 -12.015625l9.953125 -12.796875l0.859375 1.75l-9.953125 12.65625l-0.859375 -1.609375zm5.328125 6.15625q-2.3125 0 -3.921875 -1.375q-1.59375 -1.390625 -2.4375 -4.046875q-0.84375 -2.671875 -0.84375 -6.484375q0 -3.6875 0.84375 -6.359375q0.84375 -2.671875 2.4375 -4.109375q1.609375 -1.4375 3.921875 -1.4375q2.3125 0 3.921875 1.4375q1.609375 1.4375 2.4375 4.109375q0.84375 2.671875 0.84375 6.359375q0 3.8125 -0.84375 6.484375q-0.828125 2.65625 -2.4375 4.046875q-1.609375 1.375 -3.921875 1.375zm0 -2.265625q1.421875 0 2.421875 -1.125q1.015625 -1.125 1.546875 -3.265625q0.546875 -2.15625 0.546875 -5.25q0 -2.953125 -0.546875 -5.09375q-0.53125 -2.140625 -1.546875 -3.328125q-1.0 -1.203125 -2.421875 -1.203125q-1.421875 0 -2.4375 1.203125q-1.0 1.1875 -1.546875 3.328125q-0.53125 2.140625 -0.53125 5.09375q0 3.09375 0.53125 5.25q0.546875 2.140625 1.546875 3.265625q1.015625 1.125 2.4375 1.125zm18.226624 2.265625q-0.90625 0 -1.546875 -0.625q-0.625 -0.640625 -0.625 -1.5q0 -0.859375 0.625 -1.484375q0.640625 -0.640625 1.546875 -0.640625q0.859375 0 1.484375 0.640625q0.640625 0.625 0.640625 1.484375q0 0.859375 -0.640625 1.5q-0.625 0.625 -1.484375 0.625zm12.492249 -2.5q2.015625 -2.046875 3.6875 -3.71875q1.6875 -1.6875 3.015625 -3.125q1.328125 -1.4375 2.25 -2.71875q0.9375 -1.296875 1.421875 -2.546875q0.5 -1.25 0.5 -2.625q0 -1.203125 -0.3125 -2.015625q-0.296875 -0.828125 -0.84375 -1.328125q-0.53125 -0.515625 -1.265625 -0.734375q-0.71875 -0.21875 -1.546875 -0.21875q-0.890625 0 -1.71875 0.265625q-0.8125 0.25 -1.5625 0.765625q-0.75 0.5 -1.375 1.3125q-0.34375 0.53125 -0.421875 0.8125q-0.0625 0.28125 -0.03125 0.578125l-0.140625 0.1875l-0.3125 -0.1875l-1.890625 -1.5q0.734375 -1.453125 1.859375 -2.453125q1.125 -1.015625 2.53125 -1.53125q1.421875 -0.53125 3.03125 -0.53125q1.984375 0 3.46875 0.8125q1.5 0.796875 2.359375 2.296875q0.859375 1.484375 0.859375 3.53125q0 1.53125 -0.5625 2.96875q-0.5625 1.4375 -1.53125 2.828125q-0.96875 1.375 -2.28125 2.765625q-1.3125 1.375 -2.78125 2.859375q-1.46875 1.46875 -3.046875 3.0625l8.671875 0q0.625 0 0.890625 -0.0625q0.265625 -0.078125 0.484375 -0.3125l0.265625 0l0 0.375l0 2.28125l-13.671875 0l0 -2.09375zm19.945374 -3.65625l9.953125 -12.796875l0.859375 1.75l-9.953125 12.65625l-0.859375 -1.609375zm5.328125 6.15625q-2.3125 0 -3.921875 -1.375q-1.59375 -1.390625 -2.4375 -4.046875q-0.84375 -2.671875 -0.84375 -6.484375q0 -3.6875 0.84375 -6.359375q0.84375 -2.671875 2.4375 -4.109375q1.609375 -1.4375 3.921875 -1.4375q2.3125 0 3.921875 1.4375q1.609375 1.4375 2.4375 4.109375q0.84375 2.671875 0.84375 6.359375q0 3.8125 -0.84375 6.484375q-0.828125 2.65625 -2.4375 4.046875q-1.609375 1.375 -3.921875 1.375zm0 -2.265625q1.421875 0 2.421875 -1.125q1.015625 -1.125 1.546875 -3.265625q0.546875 -2.15625 0.546875 -5.25q0 -2.953125 -0.546875 -5.09375q-0.53125 -2.140625 -1.546875 -3.328125q-1.0 -1.203125 -2.421875 -1.203125q-1.421875 0 -2.4375 1.203125q-1.0 1.1875 -1.546875 3.328125q-0.53125 2.140625 -0.53125 5.09375q0 3.09375 0.53125 5.25q0.546875 2.140625 1.546875 3.265625q1.015625 1.125 2.4375 1.125zm18.664124 2.234375q-2.203125 0 -3.796875 -0.84375q-1.578125 -0.84375 -2.4375 -2.25q-0.859375 -1.421875 -0.859375 -3.140625q0 -1.34375 0.578125 -2.578125q0.578125 -1.234375 1.625 -2.25q1.046875 -1.03125 2.46875 -1.671875q-1.046875 -0.5625 -1.859375 -1.390625q-0.796875 -0.84375 -1.25 -1.890625q-0.4375 -1.046875 -0.4375 -2.171875q0 -1.59375 0.6875 -2.875q0.6875 -1.296875 2.046875 -2.078125q1.375 -0.78125 3.421875 -0.78125q2.171875 0 3.515625 0.75q1.34375 0.734375 1.984375 1.984375q0.65625 1.25 0.65625 2.78125q0 0.828125 -0.265625 1.65625q-0.25 0.8125 -0.734375 1.546875q-0.484375 0.71875 -1.15625 1.34375q-0.671875 0.609375 -1.53125 1.046875q1.0 0.453125 1.8125 1.15625q0.828125 0.6875 1.421875 1.53125q0.609375 0.828125 0.921875 1.78125q0.328125 0.953125 0.328125 1.953125q0 1.828125 -0.890625 3.265625q-0.875 1.4375 -2.46875 2.28125q-1.578125 0.84375 -3.78125 0.84375zm0.078125 -2.359375q1.453125 0 2.421875 -0.53125q0.96875 -0.546875 1.46875 -1.453125q0.515625 -0.921875 0.515625 -2.046875q0 -0.859375 -0.359375 -1.65625q-0.34375 -0.796875 -1.0 -1.484375q-0.65625 -0.703125 -1.578125 -1.25q-0.90625 -0.5625 -2.03125 -0.90625q-0.8125 0.34375 -1.546875 0.890625q-0.734375 0.53125 -1.25 1.21875q-0.515625 0.6875 -0.828125 1.453125q-0.296875 0.765625 -0.296875 1.625q0 1.125 0.515625 2.0625q0.53125 0.921875 1.53125 1.5q1.015625 0.578125 2.4375 0.578125zm0.5625 -11.375q0.671875 -0.375 1.25 -0.890625q0.578125 -0.53125 1.0 -1.125q0.4375 -0.59375 0.671875 -1.25q0.25 -0.65625 0.25 -1.328125q0 -0.890625 -0.421875 -1.65625q-0.40625 -0.765625 -1.234375 -1.25q-0.8125 -0.5 -2.046875 -0.5q-1.21875 0 -2.015625 0.46875q-0.78125 0.46875 -1.171875 1.21875q-0.390625 0.75 -0.390625 1.609375q0 0.859375 0.3125 1.53125q0.328125 0.671875 0.875 1.21875q0.5625 0.53125 1.3125 1.015625q0.75 0.484375 1.609375 0.9375zm17.648499 13.765625q-1.828125 0 -3.515625 -0.671875q-1.671875 -0.671875 -2.859375 -1.96875l1.71875 -2.0625l0.25 -0.296875l0.1875 0.1875q0.046875 0.296875 0.15625 0.578125q0.109375 0.28125 0.515625 0.734375q0.640625 0.5625 1.453125 0.921875q0.828125 0.34375 1.984375 0.34375q1.5 0 2.46875 -0.59375q0.96875 -0.609375 1.453125 -1.671875q0.484375 -1.0625 0.484375 -2.40625q0 -1.34375 -0.46875 -2.265625q-0.46875 -0.9375 -1.328125 -1.46875q-0.859375 -0.546875 -2.046875 -0.75q-1.1875 -0.21875 -2.6875 -0.0625l0 -2.09375q1.796875 0 2.921875 -0.375q1.140625 -0.375 1.75 -1.0q0.625 -0.640625 0.84375 -1.46875q0.234375 -0.84375 0.234375 -1.75q0 -0.78125 -0.25 -1.40625q-0.234375 -0.640625 -0.671875 -1.09375q-0.421875 -0.453125 -1.046875 -0.6875q-0.609375 -0.25 -1.359375 -0.25q-0.734375 0 -1.46875 0.171875q-0.734375 0.171875 -1.421875 0.546875q-0.6875 0.375 -1.359375 1.0l-1.5625 -1.5625q1.265625 -1.3125 2.765625 -1.84375q1.515625 -0.546875 3.015625 -0.546875q1.90625 0 3.25 0.734375q1.34375 0.71875 2.0625 2.03125q0.734375 1.296875 0.734375 3.015625q0 1.203125 -0.390625 2.265625q-0.390625 1.0625 -1.21875 1.84375q-0.8125 0.78125 -2.046875 1.203125q1.296875 0.40625 2.296875 1.21875q1.015625 0.796875 1.578125 1.953125q0.5625 1.15625 0.5625 2.75q0 1.84375 -0.8125 3.390625q-0.796875 1.546875 -2.34375 2.484375q-1.546875 0.921875 -3.828125 0.921875l0 0zm17.132874 5.859375l-1.265625 -1.109375q1.046875 -0.96875 1.734375 -2.09375q0.6875 -1.125 0.6875 -1.828125q0 -0.375 -0.28125 -0.703125q-0.265625 -0.3125 -0.671875 -0.609375q-0.390625 -0.296875 -0.671875 -0.6875q-0.265625 -0.390625 -0.265625 -0.875q0 -0.9375 0.609375 -1.5625q0.609375 -0.640625 1.59375 -0.640625q0.96875 0 1.75 0.859375q0.78125 0.859375 0.78125 2.234375q0 0.75 -0.25 1.546875q-0.234375 0.8125 -0.75 1.6875q-0.5 0.875 -1.25 1.828125q-0.734375 0.953125 -1.75 1.953125z" fill-rule="nonzero"/><path fill="#010000" fill-opacity="0.0" d="m461.81348 587.94214l111.98474 0l0 39.15735l-111.98474 0l0 -39.15735z" fill-rule="nonzero"/><path fill="#000000" d="m465.81348 614.2571l9.953125 -12.796875l0.859375 1.75l-9.953125 12.65625l-0.859375 -1.609375zm5.328125 6.15625q-2.3125 0 -3.921875 -1.375q-1.59375 -1.390625 -2.4375 -4.046875q-0.84375 -2.671875 -0.84375 -6.484375q0 -3.6875 0.84375 -6.359375q0.84375 -2.671875 2.4375 -4.109375q1.609375 -1.4375 3.921875 -1.4375q2.3125 0 3.921875 1.4375q1.609375 1.4375 2.4375 4.109375q0.84375 2.671875 0.84375 6.359375q0 3.8125 -0.84375 6.484375q-0.828125 2.65625 -2.4375 4.046875q-1.609375 1.375 -3.921875 1.375zm0 -2.265625q1.421875 0 2.421875 -1.125q1.015625 -1.125 1.546875 -3.265625q0.546875 -2.15625 0.546875 -5.25q0 -2.953125 -0.546875 -5.09375q-0.53125 -2.140625 -1.546875 -3.328125q-1.0 -1.203125 -2.421875 -1.203125q-1.421875 0 -2.4375 1.203125q-1.0 1.1875 -1.546875 3.328125q-0.53125 2.140625 -0.53125 5.09375q0 3.09375 0.53125 5.25q0.546875 2.140625 1.546875 3.265625q1.015625 1.125 2.4375 1.125zm18.226624 2.265625q-0.90625 0 -1.546875 -0.625q-0.625 -0.640625 -0.625 -1.5q0 -0.859375 0.625 -1.484375q0.640625 -0.640625 1.546875 -0.640625q0.859375 0 1.484375 0.640625q0.640625 0.625 0.640625 1.484375q0 0.859375 -0.640625 1.5q-0.625 0.625 -1.484375 0.625zm13.773499 -6.15625l9.953125 -12.796875l0.859375 1.75l-9.953125 12.65625l-0.859375 -1.609375zm5.328125 6.15625q-2.3125 0 -3.921875 -1.375q-1.59375 -1.390625 -2.4375 -4.046875q-0.84375 -2.671875 -0.84375 -6.484375q0 -3.6875 0.84375 -6.359375q0.84375 -2.671875 2.4375 -4.109375q1.609375 -1.4375 3.921875 -1.4375q2.3125 0 3.921875 1.4375q1.609375 1.4375 2.4375 4.109375q0.84375 2.671875 0.84375 6.359375q0 3.8125 -0.84375 6.484375q-0.828125 2.65625 -2.4375 4.046875q-1.609375 1.375 -3.921875 1.375zm0 -2.265625q1.421875 0 2.421875 -1.125q1.015625 -1.125 1.546875 -3.265625q0.546875 -2.15625 0.546875 -5.25q0 -2.953125 -0.546875 -5.09375q-0.53125 -2.140625 -1.546875 -3.328125q-1.0 -1.203125 -2.421875 -1.203125q-1.421875 0 -2.4375 1.203125q-1.0 1.1875 -1.546875 3.328125q-0.53125 2.140625 -0.53125 5.09375q0 3.09375 0.53125 5.25q0.546875 2.140625 1.546875 3.265625q1.015625 1.125 2.4375 1.125zm15.117249 1.859375q1.09375 -3.578125 2.21875 -7.03125q1.140625 -3.453125 2.359375 -6.890625q1.21875 -3.4375 2.515625 -6.875l-9.921875 0l0 -2.453125l13.171875 0l0 1.453125q-1.046875 2.6875 -2.0625 5.375q-1.0 2.6875 -1.9375 5.421875q-0.921875 2.71875 -1.765625 5.46875q-0.84375 2.734375 -1.625 5.53125l-2.953125 0zm21.835999 0.40625q-1.828125 0 -3.515625 -0.671875q-1.671875 -0.671875 -2.859375 -1.96875l1.71875 -2.0625l0.25 -0.296875l0.1875 0.1875q0.046875 0.296875 0.15625 0.578125q0.109375 0.28125 0.515625 0.734375q0.640625 0.5625 1.453125 0.921875q0.828125 0.34375 1.984375 0.34375q1.5 0 2.46875 -0.59375q0.96875 -0.609375 1.453125 -1.671875q0.484375 -1.0625 0.484375 -2.40625q0 -1.34375 -0.46875 -2.265625q-0.46875 -0.9375 -1.328125 -1.46875q-0.859375 -0.546875 -2.046875 -0.75q-1.1875 -0.21875 -2.6875 -0.0625l0 -2.09375q1.796875 0 2.921875 -0.375q1.140625 -0.375 1.75 -1.0q0.625 -0.640625 0.84375 -1.46875q0.234375 -0.84375 0.234375 -1.75q0 -0.78125 -0.25 -1.40625q-0.234375 -0.640625 -0.671875 -1.09375q-0.421875 -0.453125 -1.046875 -0.6875q-0.609375 -0.25 -1.359375 -0.25q-0.734375 0 -1.46875 0.171875q-0.734375 0.171875 -1.421875 0.546875q-0.6875 0.375 -1.359375 1.0l-1.5625 -1.5625q1.265625 -1.3125 2.765625 -1.84375q1.515625 -0.546875 3.015625 -0.546875q1.90625 0 3.25 0.734375q1.34375 0.71875 2.0625 2.03125q0.734375 1.296875 0.734375 3.015625q0 1.203125 -0.390625 2.265625q-0.390625 1.0625 -1.21875 1.84375q-0.8125 0.78125 -2.046875 1.203125q1.296875 0.40625 2.296875 1.21875q1.015625 0.796875 1.578125 1.953125q0.5625 1.15625 0.5625 2.75q0 1.84375 -0.8125 3.390625q-0.796875 1.546875 -2.34375 2.484375q-1.546875 0.921875 -3.828125 0.921875l0 0zm21.585999 -0.40625l0 -5.71875l-10.078125 0l0 -1.890625l10.640625 -15.6875l2.1875 0l0 15.421875l3.0 0l0 2.203125l-3.0 0l0 5.671875l-2.75 0zm-7.0625 -7.90625l7.0625 0l0 -10.6875l-7.0625 10.6875z" fill-rule="nonzero"/><path fill="#000000" d="m581.2201 626.2727l-1.265625 -1.109375q1.046875 -0.96875 1.734375 -2.09375q0.6875 -1.125 0.6875 -1.828125q0 -0.375 -0.28125 -0.703125q-0.265625 -0.3125 -0.671875 -0.609375q-0.390625 -0.296875 -0.671875 -0.6875q-0.265625 -0.390625 -0.265625 -0.875q0 -0.9375 0.609375 -1.5625q0.609375 -0.640625 1.59375 -0.640625q0.96875 0 1.75 0.859375q0.78125 0.859375 0.78125 2.234375q0 0.75 -0.25 1.546875q-0.234375 0.8125 -0.75 1.6875q-0.5 0.875 -1.25 1.828125q-0.734375 0.953125 -1.75 1.953125zm33.906372 -12.015625l9.953125 -12.796875l0.859375 1.75l-9.953125 12.65625l-0.859375 -1.609375zm5.328125 6.15625q-2.3125 0 -3.921875 -1.375q-1.59375 -1.390625 -2.4375 -4.046875q-0.84375 -2.671875 -0.84375 -6.484375q0 -3.6875 0.84375 -6.359375q0.84375 -2.671875 2.4375 -4.109375q1.609375 -1.4375 3.921875 -1.4375q2.3125 0 3.921875 1.4375q1.609375 1.4375 2.4375 4.109375q0.84375 2.671875 0.84375 6.359375q0 3.8125 -0.84375 6.484375q-0.828125 2.65625 -2.4375 4.046875q-1.609375 1.375 -3.921875 1.375zm0 -2.265625q1.421875 0 2.421875 -1.125q1.015625 -1.125 1.546875 -3.265625q0.546875 -2.15625 0.546875 -5.25q0 -2.953125 -0.546875 -5.09375q-0.53125 -2.140625 -1.546875 -3.328125q-1.0 -1.203125 -2.421875 -1.203125q-1.421875 0 -2.4375 1.203125q-1.0 1.1875 -1.546875 3.328125q-0.53125 2.140625 -0.53125 5.09375q0 3.09375 0.53125 5.25q0.546875 2.140625 1.546875 3.265625q1.015625 1.125 2.4375 1.125zm18.226624 2.265625q-0.90625 0 -1.546875 -0.625q-0.625 -0.640625 -0.625 -1.5q0 -0.859375 0.625 -1.484375q0.640625 -0.640625 1.546875 -0.640625q0.859375 0 1.484375 0.640625q0.640625 0.625 0.640625 1.484375q0 0.859375 -0.640625 1.5q-0.625 0.625 -1.484375 0.625zm13.773499 -6.15625l9.953125 -12.796875l0.859375 1.75l-9.953125 12.65625l-0.859375 -1.609375zm5.328125 6.15625q-2.3125 0 -3.921875 -1.375q-1.59375 -1.390625 -2.4375 -4.046875q-0.84375 -2.671875 -0.84375 -6.484375q0 -3.6875 0.84375 -6.359375q0.84375 -2.671875 2.4375 -4.109375q1.609375 -1.4375 3.921875 -1.4375q2.3125 0 3.921875 1.4375q1.609375 1.4375 2.4375 4.109375q0.84375 2.671875 0.84375 6.359375q0 3.8125 -0.84375 6.484375q-0.828125 2.65625 -2.4375 4.046875q-1.609375 1.375 -3.921875 1.375zm0 -2.265625q1.421875 0 2.421875 -1.125q1.015625 -1.125 1.546875 -3.265625q0.546875 -2.15625 0.546875 -5.25q0 -2.953125 -0.546875 -5.09375q-0.53125 -2.140625 -1.546875 -3.328125q-1.0 -1.203125 -2.421875 -1.203125q-1.421875 0 -2.4375 1.203125q-1.0 1.1875 -1.546875 3.328125q-0.53125 2.140625 -0.53125 5.09375q0 3.09375 0.53125 5.25q0.546875 2.140625 1.546875 3.265625q1.015625 1.125 2.4375 1.125zm18.664124 2.234375q-2.203125 0 -3.796875 -0.84375q-1.578125 -0.84375 -2.4375 -2.25q-0.859375 -1.421875 -0.859375 -3.140625q0 -1.34375 0.578125 -2.578125q0.578125 -1.234375 1.625 -2.25q1.046875 -1.03125 2.46875 -1.671875q-1.046875 -0.5625 -1.859375 -1.390625q-0.796875 -0.84375 -1.25 -1.890625q-0.4375 -1.046875 -0.4375 -2.171875q0 -1.59375 0.6875 -2.875q0.6875 -1.296875 2.046875 -2.078125q1.375 -0.78125 3.421875 -0.78125q2.171875 0 3.515625 0.75q1.34375 0.734375 1.984375 1.984375q0.65625 1.25 0.65625 2.78125q0 0.828125 -0.265625 1.65625q-0.25 0.8125 -0.734375 1.546875q-0.484375 0.71875 -1.15625 1.34375q-0.671875 0.609375 -1.53125 1.046875q1.0 0.453125 1.8125 1.15625q0.828125 0.6875 1.421875 1.53125q0.609375 0.828125 0.921875 1.78125q0.328125 0.953125 0.328125 1.953125q0 1.828125 -0.890625 3.265625q-0.875 1.4375 -2.46875 2.28125q-1.578125 0.84375 -3.78125 0.84375zm0.078125 -2.359375q1.453125 0 2.421875 -0.53125q0.96875 -0.546875 1.46875 -1.453125q0.515625 -0.921875 0.515625 -2.046875q0 -0.859375 -0.359375 -1.65625q-0.34375 -0.796875 -1.0 -1.484375q-0.65625 -0.703125 -1.578125 -1.25q-0.90625 -0.5625 -2.03125 -0.90625q-0.8125 0.34375 -1.546875 0.890625q-0.734375 0.53125 -1.25 1.21875q-0.515625 0.6875 -0.828125 1.453125q-0.296875 0.765625 -0.296875 1.625q0 1.125 0.515625 2.0625q0.53125 0.921875 1.53125 1.5q1.015625 0.578125 2.4375 0.578125zm0.5625 -11.375q0.671875 -0.375 1.25 -0.890625q0.578125 -0.53125 1.0 -1.125q0.4375 -0.59375 0.671875 -1.25q0.25 -0.65625 0.25 -1.328125q0 -0.890625 -0.421875 -1.65625q-0.40625 -0.765625 -1.234375 -1.25q-0.8125 -0.5 -2.046875 -0.5q-1.21875 0 -2.015625 0.46875q-0.78125 0.46875 -1.171875 1.21875q-0.390625 0.75 -0.390625 1.609375q0 0.859375 0.3125 1.53125q0.328125 0.671875 0.875 1.21875q0.5625 0.53125 1.3125 1.015625q0.75 0.484375 1.609375 0.9375zm14.476624 13.359375q1.09375 -3.578125 2.21875 -7.03125q1.140625 -3.453125 2.359375 -6.890625q1.21875 -3.4375 2.515625 -6.875l-9.921875 0l0 -2.453125l13.171875 0l0 1.453125q-1.046875 2.6875 -2.0625 5.375q-1.0 2.6875 -1.9375 5.421875q-0.921875 2.71875 -1.765625 5.46875q-0.84375 2.734375 -1.625 5.53125l-2.953125 0zm16.882874 -5.75l9.953125 -12.796875l0.859375 1.75l-9.953125 12.65625l-0.859375 -1.609375zm5.328125 6.15625q-2.3125 0 -3.921875 -1.375q-1.59375 -1.390625 -2.4375 -4.046875q-0.84375 -2.671875 -0.84375 -6.484375q0 -3.6875 0.84375 -6.359375q0.84375 -2.671875 2.4375 -4.109375q1.609375 -1.4375 3.921875 -1.4375q2.3125 0 3.921875 1.4375q1.609375 1.4375 2.4375 4.109375q0.84375 2.671875 0.84375 6.359375q0 3.8125 -0.84375 6.484375q-0.828125 2.65625 -2.4375 4.046875q-1.609375 1.375 -3.921875 1.375zm0 -2.265625q1.421875 0 2.421875 -1.125q1.015625 -1.125 1.546875 -3.265625q0.546875 -2.15625 0.546875 -5.25q0 -2.953125 -0.546875 -5.09375q-0.53125 -2.140625 -1.546875 -3.328125q-1.0 -1.203125 -2.421875 -1.203125q-1.421875 0 -2.4375 1.203125q-1.0 1.1875 -1.546875 3.328125q-0.53125 2.140625 -0.53125 5.09375q0 3.09375 0.53125 5.25q0.546875 2.140625 1.546875 3.265625q1.015625 1.125 2.4375 1.125zm16.757874 8.125l-1.265625 -1.109375q1.046875 -0.96875 1.734375 -2.09375q0.6875 -1.125 0.6875 -1.828125q0 -0.375 -0.28125 -0.703125q-0.265625 -0.3125 -0.671875 -0.609375q-0.390625 -0.296875 -0.671875 -0.6875q-0.265625 -0.390625 -0.265625 -0.875q0 -0.9375 0.609375 -1.5625q0.609375 -0.640625 1.59375 -0.640625q0.96875 0 1.75 0.859375q0.78125 0.859375 0.78125 2.234375q0 0.75 -0.25 1.546875q-0.234375 0.8125 -0.75 1.6875q-0.5 0.875 -1.25 1.828125q-0.734375 0.953125 -1.75 1.953125zm33.906372 -12.015625l9.953125 -12.796875l0.859375 1.75l-9.953125 12.65625l-0.859375 -1.609375zm5.328125 6.15625q-2.3125 0 -3.921875 -1.375q-1.59375 -1.390625 -2.4375 -4.046875q-0.84375 -2.671875 -0.84375 -6.484375q0 -3.6875 0.84375 -6.359375q0.84375 -2.671875 2.4375 -4.109375q1.609375 -1.4375 3.921875 -1.4375q2.3125 0 3.921875 1.4375q1.609375 1.4375 2.4375 4.109375q0.84375 2.671875 0.84375 6.359375q0 3.8125 -0.84375 6.484375q-0.828125 2.65625 -2.4375 4.046875q-1.609375 1.375 -3.921875 1.375zm0 -2.265625q1.421875 0 2.421875 -1.125q1.015625 -1.125 1.546875 -3.265625q0.546875 -2.15625 0.546875 -5.25q0 -2.953125 -0.546875 -5.09375q-0.53125 -2.140625 -1.546875 -3.328125q-1.0 -1.203125 -2.421875 -1.203125q-1.421875 0 -2.4375 1.203125q-1.0 1.1875 -1.546875 3.328125q-0.53125 2.140625 -0.53125 5.09375q0 3.09375 0.53125 5.25q0.546875 2.140625 1.546875 3.265625q1.015625 1.125 2.4375 1.125zm18.226624 2.265625q-0.90625 0 -1.546875 -0.625q-0.625 -0.640625 -0.625 -1.5q0 -0.859375 0.625 -1.484375q0.640625 -0.640625 1.546875 -0.640625q0.859375 0 1.484375 0.640625q0.640625 0.625 0.640625 1.484375q0 0.859375 -0.640625 1.5q-0.625 0.625 -1.484375 0.625zm13.773499 -6.15625l9.953125 -12.796875l0.859375 1.75l-9.953125 12.65625l-0.859375 -1.609375zm5.328125 6.15625q-2.3125 0 -3.921875 -1.375q-1.59375 -1.390625 -2.4375 -4.046875q-0.84375 -2.671875 -0.84375 -6.484375q0 -3.6875 0.84375 -6.359375q0.84375 -2.671875 2.4375 -4.109375q1.609375 -1.4375 3.921875 -1.4375q2.3125 0 3.921875 1.4375q1.609375 1.4375 2.4375 4.109375q0.84375 2.671875 0.84375 6.359375q0 3.8125 -0.84375 6.484375q-0.828125 2.65625 -2.4375 4.046875q-1.609375 1.375 -3.921875 1.375zm0 -2.265625q1.421875 0 2.421875 -1.125q1.015625 -1.125 1.546875 -3.265625q0.546875 -2.15625 0.546875 -5.25q0 -2.953125 -0.546875 -5.09375q-0.53125 -2.140625 -1.546875 -3.328125q-1.0 -1.203125 -2.421875 -1.203125q-1.421875 0 -2.4375 1.203125q-1.0 1.1875 -1.546875 3.328125q-0.53125 2.140625 -0.53125 5.09375q0 3.09375 0.53125 5.25q0.546875 2.140625 1.546875 3.265625q1.015625 1.125 2.4375 1.125zm17.851624 2.234375q-1.71875 0 -3.109375 -0.53125q-1.375 -0.546875 -2.453125 -1.59375l1.59375 -1.828125l0.265625 -0.296875l0.1875 0.171875q0.046875 0.3125 0.1875 0.5625q0.15625 0.234375 0.59375 0.640625q0.53125 0.328125 1.125 0.484375q0.59375 0.15625 1.375 0.15625q1.5 0 2.5625 -0.859375q1.0625 -0.859375 1.734375 -2.3125q0.671875 -1.46875 0.984375 -3.25q0.328125 -1.796875 0.328125 -3.65625q0 -3.109375 -0.484375 -5.140625q-0.484375 -2.03125 -1.5 -3.03125q-1.0 -1.015625 -2.578125 -1.015625q-0.921875 0 -1.71875 0.359375q-0.78125 0.34375 -1.359375 1.046875q-0.578125 0.6875 -0.875 1.65625q-0.296875 0.96875 -0.296875 2.203125q0 1.109375 0.328125 2.0q0.34375 0.875 0.9375 1.484375q0.59375 0.609375 1.359375 0.953125q0.765625 0.328125 1.625 0.328125q1.3125 0 2.21875 -0.296875q0.921875 -0.296875 1.65625 -0.96875q0.75 -0.671875 1.421875 -1.75l0.1875 2.65625q-0.703125 0.78125 -1.484375 1.375q-0.78125 0.59375 -1.78125 0.9375q-0.984375 0.328125 -2.25 0.328125q-1.453125 0 -2.6875 -0.5q-1.234375 -0.5 -2.15625 -1.4375q-0.90625 -0.9375 -1.421875 -2.21875q-0.5 -1.296875 -0.5 -2.859375q0 -1.640625 0.515625 -3.015625q0.53125 -1.390625 1.4375 -2.40625q0.921875 -1.03125 2.140625 -1.59375q1.21875 -0.5625 2.59375 -0.5625q2.203125 0 3.796875 1.28125q1.609375 1.265625 2.484375 3.484375q0.890625 2.21875 0.890625 5.09375q0 4.703125 -0.953125 7.765625q-0.953125 3.0625 -2.71875 4.578125q-1.75 1.5 -4.203125 1.578125l0 0zm14.148499 -6.125l9.953125 -12.796875l0.859375 1.75l-9.953125 12.65625l-0.859375 -1.609375zm5.328125 6.15625q-2.3125 0 -3.921875 -1.375q-1.59375 -1.390625 -2.4375 -4.046875q-0.84375 -2.671875 -0.84375 -6.484375q0 -3.6875 0.84375 -6.359375q0.84375 -2.671875 2.4375 -4.109375q1.609375 -1.4375 3.921875 -1.4375q2.3125 0 3.921875 1.4375q1.609375 1.4375 2.4375 4.109375q0.84375 2.671875 0.84375 6.359375q0 3.8125 -0.84375 6.484375q-0.828125 2.65625 -2.4375 4.046875q-1.609375 1.375 -3.921875 1.375zm0 -2.265625q1.421875 0 2.421875 -1.125q1.015625 -1.125 1.546875 -3.265625q0.546875 -2.15625 0.546875 -5.25q0 -2.953125 -0.546875 -5.09375q-0.53125 -2.140625 -1.546875 -3.328125q-1.0 -1.203125 -2.421875 -1.203125q-1.421875 0 -2.4375 1.203125q-1.0 1.1875 -1.546875 3.328125q-0.53125 2.140625 -0.53125 5.09375q0 3.09375 0.53125 5.25q0.546875 2.140625 1.546875 3.265625q1.015625 1.125 2.4375 1.125zm24.945374 5.1875l-10.71875 0l0 -2.140625l8.328125 0l0 -23.953125l-8.296875 0l0 -2.25l10.6875 0l0 28.34375z" fill-rule="nonzero"/></g></svg>